<svg width="74" height="152" viewBox="0 0 74 152" fill="none" xmlns="http://www.w3.org/2000/svg">
<path d="M2.271 24.9051C2.271 22.6959 4.06186 20.9051 6.271 20.9051H67.4055C69.6146 20.9051 71.4055 22.6959 71.4055 24.9051V147.241C71.4055 149.45 69.6146 151.241 67.4055 151.241H6.271C4.06186 151.241 2.271 149.45 2.271 147.241V24.9051Z" fill="#3A4C8D"/>
<path d="M2.271 64.5721C2.271 62.3629 4.06186 60.5721 6.271 60.5721H67.4055C69.6146 60.5721 71.4055 62.3629 71.4055 64.5721V147.241C71.4055 149.45 69.6146 151.241 67.4055 151.241H6.271C4.06186 151.241 2.271 149.45 2.271 147.241V64.5721Z" fill="#5D75CB"/>
<path d="M5.6709 106.506C5.6709 104.297 7.46176 102.506 9.6709 102.506H64.0053C66.2144 102.506 68.0053 104.297 68.0053 106.506V140.44C68.0053 142.649 66.2144 144.44 64.0053 144.44H9.6709C7.46176 144.44 5.6709 142.649 5.6709 140.44V106.506Z" fill="#050505"/>
<path d="M18.7496 39.2833C18.7496 43.0389 15.7051 46.0834 11.9495 46.0834C8.19393 46.0834 5.14941 43.0389 5.14941 39.2833C5.14941 35.5277 8.19393 32.4832 11.9495 32.4832C15.7051 32.4832 18.7496 35.5277 18.7496 39.2833Z" fill="#D9D9D9"/>
<path d="M16.4823 39.2832C16.4823 41.7869 14.4527 43.8166 11.9489 43.8166C9.4452 43.8166 7.41553 41.7869 7.41553 39.2832C7.41553 36.7795 9.4452 34.7498 11.9489 34.7498C14.4527 34.7498 16.4823 36.7795 16.4823 39.2832Z" fill="white"/>
<path d="M35.4699 39.2833C35.4699 43.0389 32.4253 46.0834 28.6697 46.0834C24.9141 46.0834 21.8696 43.0389 21.8696 39.2833C21.8696 35.5277 24.9141 32.4832 28.6697 32.4832C32.4253 32.4832 35.4699 35.5277 35.4699 39.2833Z" fill="#D9D9D9"/>
<path d="M33.203 39.2832C33.203 41.7869 31.1734 43.8166 28.6696 43.8166C26.1659 43.8166 24.1362 41.7869 24.1362 39.2832C24.1362 36.7795 26.1659 34.7498 28.6696 34.7498C31.1734 34.7498 33.203 36.7795 33.203 39.2832Z" fill="white"/>
<path d="M52.191 39.5616C52.191 43.3172 49.1465 46.3617 45.3909 46.3617C41.6353 46.3617 38.5908 43.3172 38.5908 39.5616C38.5908 35.806 41.6353 32.7615 45.3909 32.7615C49.1465 32.7615 52.191 35.806 52.191 39.5616Z" fill="#D9D9D9"/>
<path d="M49.9242 39.5615C49.9242 42.0653 47.8946 44.0949 45.3908 44.0949C42.8871 44.0949 40.8574 42.0653 40.8574 39.5615C40.8574 37.0578 42.8871 35.0281 45.3908 35.0281C47.8946 35.0281 49.9242 37.0578 49.9242 39.5615Z" fill="white"/>
<path d="M68.9118 39.2823C68.9118 43.0379 65.8672 46.0824 62.1116 46.0824C58.356 46.0824 55.3115 43.0379 55.3115 39.2823C55.3115 35.5267 58.356 32.4822 62.1116 32.4822C65.8672 32.4822 68.9118 35.5267 68.9118 39.2823Z" fill="#D9D9D9"/>
<path d="M66.6454 39.2822C66.6454 41.786 64.6158 43.8156 62.112 43.8156C59.6083 43.8156 57.5786 41.786 57.5786 39.2822C57.5786 36.7785 59.6083 34.7488 62.112 34.7488C64.6158 34.7488 66.6454 36.7785 66.6454 39.2822Z" fill="white"/>
<path d="M0.00390625 62.8387H2.27061V79.8389H0.00390625V62.8387Z" fill="#ABB4BB"/>
<path d="M71.4053 62.8387H73.672V79.8389H71.4053V62.8387Z" fill="#ABB4BB"/>
<path d="M0.00390625 84.3728H2.27061V101.373H0.00390625V84.3728Z" fill="#ABB4BB"/>
<path d="M37.9479 51.1288C37.9479 51.8392 37.3721 52.415 36.6617 52.415C35.9514 52.415 35.3755 51.8392 35.3755 51.1288C35.3755 50.4184 35.9514 49.8426 36.6617 49.8426C37.3721 49.8426 37.9479 50.4184 37.9479 51.1288Z" fill="#F40E0E"/>
<path d="M24.181 6.06498H25.2662C25.2097 6.585 25.0609 7.05037 24.8197 7.46111C24.5785 7.87185 24.2375 8.1978 23.7966 8.43897C23.3557 8.67637 22.8056 8.79507 22.1461 8.79507C21.6638 8.79507 21.2248 8.70463 20.8291 8.52376C20.4372 8.34288 20.1 8.08664 19.8174 7.75503C19.5347 7.41966 19.3162 7.01834 19.1617 6.55108C19.011 6.08005 18.9356 5.55627 18.9356 4.97973V4.16014C18.9356 3.58359 19.011 3.06169 19.1617 2.59443C19.3162 2.1234 19.5366 1.7202 19.823 1.38483C20.1132 1.04945 20.4617 0.79133 20.8687 0.610455C21.2757 0.429579 21.7335 0.339141 22.2422 0.339141C22.864 0.339141 23.3896 0.455957 23.8192 0.689588C24.2488 0.923218 24.5823 1.24729 24.8197 1.66179C25.0609 2.07253 25.2097 2.54921 25.2662 3.09184H24.181C24.1282 2.70748 24.0302 2.37776 23.8871 2.10268C23.7439 1.82383 23.5404 1.60904 23.2766 1.45831C23.0128 1.30758 22.668 1.23221 22.2422 1.23221C21.8767 1.23221 21.5545 1.30193 21.2757 1.44135C21.0006 1.58078 20.7688 1.77861 20.5804 2.03485C20.3958 2.29109 20.2564 2.5982 20.1621 2.95618C20.0679 3.31417 20.0208 3.71171 20.0208 4.14883V4.97973C20.0208 5.38293 20.0623 5.76164 20.1452 6.11585C20.2319 6.47007 20.3619 6.78095 20.5352 7.04849C20.7085 7.31604 20.929 7.52706 21.1965 7.68155C21.4641 7.83228 21.7806 7.90765 22.1461 7.90765C22.6096 7.90765 22.9789 7.83417 23.254 7.68721C23.5291 7.54025 23.7363 7.32922 23.8757 7.05414C24.0189 6.77906 24.1207 6.44934 24.181 6.06498Z" fill="#FBFF89"/>
<path d="M27.6402 0V8.68202H26.5945V0H27.6402ZM27.3915 5.39235L26.9563 5.37539C26.9601 4.95712 27.0222 4.57087 27.1428 4.21666C27.2634 3.85868 27.433 3.5478 27.6515 3.28402C27.8701 3.02024 28.1301 2.81676 28.4315 2.67357C28.7368 2.5266 29.074 2.45312 29.4433 2.45312C29.7448 2.45312 30.0161 2.49457 30.2573 2.57748C30.4984 2.65661 30.7038 2.78473 30.8734 2.96184C31.0467 3.13894 31.1786 3.36881 31.269 3.65142C31.3595 3.93027 31.4047 4.2713 31.4047 4.6745V8.68202H30.3533V4.6632C30.3533 4.3429 30.3062 4.08665 30.212 3.89447C30.1178 3.69853 29.9803 3.55722 29.7994 3.47055C29.6185 3.38011 29.3962 3.33489 29.1324 3.33489C28.8724 3.33489 28.635 3.38953 28.4202 3.49881C28.2092 3.60809 28.0265 3.75882 27.872 3.951C27.7212 4.14318 27.6025 4.36362 27.5159 4.61232C27.433 4.85726 27.3915 5.11727 27.3915 5.39235Z" fill="#FBFF89"/>
<path d="M32.6934 5.69192V5.56192C32.6934 5.12104 32.7575 4.71218 32.8856 4.33536C33.0137 3.95477 33.1984 3.62505 33.4395 3.3462C33.6807 3.06358 33.9727 2.84502 34.3157 2.69052C34.6586 2.53226 35.0429 2.45312 35.4687 2.45312C35.8983 2.45312 36.2846 2.53226 36.6275 2.69052C36.9741 2.84502 37.2681 3.06358 37.5092 3.3462C37.7542 3.62505 37.9407 3.95477 38.0688 4.33536C38.1969 4.71218 38.261 5.12104 38.261 5.56192V5.69192C38.261 6.13281 38.1969 6.54166 38.0688 6.91849C37.9407 7.29531 37.7542 7.62503 37.5092 7.90765C37.2681 8.1865 36.976 8.40506 36.6331 8.56332C36.294 8.71782 35.9096 8.79507 35.48 8.79507C35.0505 8.79507 34.6642 8.71782 34.3213 8.56332C33.9784 8.40506 33.6845 8.1865 33.4395 7.90765C33.1984 7.62503 33.0137 7.29531 32.8856 6.91849C32.7575 6.54166 32.6934 6.13281 32.6934 5.69192ZM33.7391 5.56192V5.69192C33.7391 5.99715 33.7749 6.28542 33.8465 6.55674C33.9181 6.82428 34.0255 7.06168 34.1687 7.26893C34.3157 7.47619 34.4984 7.6401 34.717 7.76069C34.9355 7.8775 35.1899 7.93591 35.48 7.93591C35.7664 7.93591 36.017 7.8775 36.2318 7.76069C36.4504 7.6401 36.6312 7.47619 36.7744 7.26893C36.9176 7.06168 37.025 6.82428 37.0966 6.55674C37.172 6.28542 37.2097 5.99715 37.2097 5.69192V5.56192C37.2097 5.26046 37.172 4.97596 37.0966 4.70841C37.025 4.4371 36.9157 4.19782 36.7688 3.99056C36.6256 3.77954 36.4447 3.61374 36.2262 3.49316C36.0114 3.37257 35.7589 3.31228 35.4687 3.31228C35.1824 3.31228 34.9299 3.37257 34.7113 3.49316C34.4965 3.61374 34.3157 3.77954 34.1687 3.99056C34.0255 4.19782 33.9181 4.4371 33.8465 4.70841C33.7749 4.97596 33.7391 5.26046 33.7391 5.56192Z" fill="#FBFF89"/>
<path d="M40.618 3.52707V8.68202H39.5723V2.56617H40.5898L40.618 3.52707ZM42.5285 2.53226L42.5229 3.50446C42.4362 3.48562 42.3533 3.47432 42.2742 3.47055C42.1988 3.46301 42.1121 3.45924 42.0142 3.45924C41.773 3.45924 41.5601 3.49693 41.3755 3.57229C41.1908 3.64766 41.0344 3.75317 40.9063 3.88882C40.7782 4.02448 40.6764 4.18651 40.6011 4.37493C40.5295 4.55957 40.4824 4.76305 40.4598 4.98538L40.1658 5.15495C40.1658 4.78566 40.2016 4.43898 40.2732 4.11492C40.3486 3.79085 40.4635 3.50446 40.618 3.25576C40.7725 3.00329 40.9685 2.80734 41.2059 2.66791C41.447 2.52472 41.7334 2.45312 42.065 2.45312C42.1404 2.45312 42.2271 2.46254 42.325 2.48138C42.423 2.49646 42.4908 2.51342 42.5285 2.53226Z" fill="#FBFF89"/>
<path d="M47.2369 7.26893V2.56617H48.2883V8.68202H47.2878L47.2369 7.26893ZM47.4348 5.98019L47.87 5.96889C47.87 6.37586 47.8267 6.75268 47.74 7.09936C47.6571 7.44227 47.5214 7.73996 47.333 7.99243C47.1446 8.24491 46.8978 8.44274 46.5926 8.58593C46.2873 8.72536 45.9162 8.79507 45.4791 8.79507C45.1814 8.79507 44.9082 8.75173 44.6595 8.66506C44.4145 8.57839 44.2035 8.44462 44.0264 8.26375C43.8493 8.08287 43.7118 7.84736 43.6138 7.5572C43.5196 7.26705 43.4725 6.91849 43.4725 6.51152V2.56617H44.5182V6.52282C44.5182 6.7979 44.5483 7.02588 44.6086 7.20676C44.6727 7.38386 44.7574 7.52517 44.863 7.63068C44.9722 7.73243 45.0928 7.80402 45.2247 7.84547C45.3604 7.88692 45.4998 7.90765 45.643 7.90765C46.0876 7.90765 46.44 7.82286 46.7 7.65329C46.96 7.47995 47.1465 7.24821 47.2596 6.95805C47.3764 6.66413 47.4348 6.33818 47.4348 5.98019Z" fill="#FBFF89"/>
<path d="M53.4432 7.05979C53.4432 6.90907 53.4093 6.76964 53.3415 6.64152C53.2774 6.50963 53.1437 6.39093 52.9402 6.28542C52.7405 6.17614 52.439 6.08194 52.0358 6.0028C51.6967 5.93121 51.3895 5.84642 51.1145 5.74845C50.8431 5.65047 50.6114 5.53177 50.4192 5.39235C50.2308 5.25292 50.0857 5.08901 49.984 4.90059C49.8822 4.71218 49.8314 4.49174 49.8314 4.23927C49.8314 3.9981 49.8841 3.77012 49.9896 3.55533C50.0989 3.34054 50.2515 3.15025 50.4475 2.98444C50.6472 2.81864 50.8865 2.68864 51.1653 2.59443C51.4442 2.50023 51.7551 2.45312 52.098 2.45312C52.5878 2.45312 53.0061 2.53979 53.3528 2.71313C53.6995 2.88647 53.9651 3.11822 54.1498 3.40837C54.3344 3.69476 54.4267 4.01317 54.4267 4.36362H53.3811C53.3811 4.19405 53.3302 4.03013 53.2284 3.87187C53.1305 3.70983 52.9854 3.57606 52.7932 3.47055C52.6048 3.36504 52.3731 3.31228 52.098 3.31228C51.8078 3.31228 51.5723 3.3575 51.3914 3.44794C51.2143 3.53461 51.0843 3.64577 51.0014 3.78143C50.9223 3.91708 50.8827 4.06028 50.8827 4.21101C50.8827 4.32405 50.9016 4.4258 50.9392 4.51623C50.9807 4.6029 51.0523 4.68392 51.154 4.75929C51.2558 4.83088 51.399 4.89871 51.5836 4.96277C51.7682 5.02683 52.0038 5.09089 52.2902 5.15495C52.7913 5.268 53.2039 5.40365 53.528 5.56192C53.8521 5.72019 54.0933 5.91425 54.2515 6.14411C54.4098 6.37398 54.4889 6.65283 54.4889 6.98066C54.4889 7.24821 54.4324 7.49314 54.3193 7.71547C54.2101 7.93779 54.0499 8.12997 53.8389 8.29201C53.6316 8.45028 53.3829 8.57463 53.0928 8.66506C52.8064 8.75173 52.4842 8.79507 52.1262 8.79507C51.5874 8.79507 51.1314 8.69898 50.7584 8.5068C50.3853 8.31462 50.1027 8.06592 49.9105 7.76069C49.7183 7.45546 49.6222 7.13328 49.6222 6.79413H50.6736C50.6887 7.08052 50.7716 7.3085 50.9223 7.47807C51.073 7.64387 51.2577 7.76257 51.4762 7.83417C51.6948 7.902 51.9114 7.93591 52.1262 7.93591C52.4126 7.93591 52.6519 7.89823 52.8441 7.82286C53.04 7.7475 53.1889 7.64387 53.2906 7.51198C53.3924 7.3801 53.4432 7.22937 53.4432 7.05979Z" fill="#FBFF89"/>
</svg>
