<svg width="74" height="152" viewBox="0 0 74 152" fill="none" xmlns="http://www.w3.org/2000/svg">
<path d="M2.60303 24.9051C2.60303 22.6959 4.39389 20.9051 6.60303 20.9051H67.7375C69.9466 20.9051 71.7375 22.6959 71.7375 24.9051V147.241C71.7375 149.45 69.9466 151.241 67.7375 151.241H6.60303C4.39389 151.241 2.60303 149.45 2.60303 147.241V24.9051Z" fill="#717171"/>
<path d="M2.60303 64.5721C2.60303 62.3629 4.39389 60.5721 6.60303 60.5721H67.7375C69.9467 60.5721 71.7375 62.3629 71.7375 64.5721V147.241C71.7375 149.45 69.9466 151.241 67.7375 151.241H6.60303C4.39389 151.241 2.60303 149.45 2.60303 147.241V64.5721Z" fill="#999999"/>
<path d="M6.00293 106.506C6.00293 104.297 7.79379 102.506 10.0029 102.506H64.3373C66.5464 102.506 68.3373 104.297 68.3373 106.506V140.44C68.3373 142.649 66.5464 144.44 64.3373 144.44H10.0029C7.79379 144.44 6.00293 142.649 6.00293 140.44V106.506Z" fill="#050505"/>
<path d="M19.0817 39.2833C19.0817 43.0389 16.0372 46.0834 12.2816 46.0834C8.52596 46.0834 5.48145 43.0389 5.48145 39.2833C5.48145 35.5277 8.52596 32.4832 12.2816 32.4832C16.0372 32.4832 19.0817 35.5277 19.0817 39.2833Z" fill="#D9D9D9"/>
<path d="M16.8149 39.2832C16.8149 41.7869 14.7852 43.8166 12.2815 43.8166C9.77772 43.8166 7.74805 41.7869 7.74805 39.2832C7.74805 36.7795 9.77772 34.7498 12.2815 34.7498C14.7852 34.7498 16.8149 36.7795 16.8149 39.2832Z" fill="white"/>
<path d="M35.8029 39.2833C35.8029 43.0389 32.7583 46.0834 29.0028 46.0834C25.2472 46.0834 22.2026 43.0389 22.2026 39.2833C22.2026 35.5277 25.2472 32.4832 29.0028 32.4832C32.7583 32.4832 35.8029 35.5277 35.8029 39.2833Z" fill="#D9D9D9"/>
<path d="M33.5361 39.2832C33.5361 41.7869 31.5064 43.8166 29.0026 43.8166C26.4989 43.8166 24.4692 41.7869 24.4692 39.2832C24.4692 36.7795 26.4989 34.7498 29.0026 34.7498C31.5064 34.7498 33.5361 36.7795 33.5361 39.2832Z" fill="white"/>
<path d="M52.5231 39.5616C52.5231 43.3172 49.4786 46.3617 45.723 46.3617C41.9674 46.3617 38.9229 43.3172 38.9229 39.5616C38.9229 35.806 41.9674 32.7615 45.723 32.7615C49.4786 32.7615 52.5231 35.806 52.5231 39.5616Z" fill="#D9D9D9"/>
<path d="M50.2568 39.5615C50.2568 42.0653 48.2271 44.0949 45.7234 44.0949C43.2196 44.0949 41.1899 42.0653 41.1899 39.5615C41.1899 37.0578 43.2196 35.0281 45.7234 35.0281C48.2271 35.0281 50.2568 37.0578 50.2568 39.5615Z" fill="white"/>
<path d="M69.2443 39.2823C69.2443 43.0379 66.1998 46.0824 62.4442 46.0824C58.6886 46.0824 55.644 43.0379 55.644 39.2823C55.644 35.5267 58.6886 32.4822 62.4442 32.4822C66.1998 32.4822 69.2443 35.5267 69.2443 39.2823Z" fill="#D9D9D9"/>
<path d="M66.9775 39.2822C66.9775 41.786 64.9478 43.8156 62.4441 43.8156C59.9403 43.8156 57.9106 41.786 57.9106 39.2822C57.9106 36.7785 59.9403 34.7488 62.4441 34.7488C64.9478 34.7488 66.9775 36.7785 66.9775 39.2822Z" fill="white"/>
<path d="M0.335938 62.8387H2.60264V79.8389H0.335938V62.8387Z" fill="#ABB4BB"/>
<path d="M71.7373 62.8387H74.004V79.8389H71.7373V62.8387Z" fill="#ABB4BB"/>
<path d="M0.335938 84.3728H2.60264V101.373H0.335938V84.3728Z" fill="#ABB4BB"/>
<path d="M38.28 51.1288C38.28 51.8392 37.7041 52.415 36.9937 52.415C36.2834 52.415 35.7075 51.8392 35.7075 51.1288C35.7075 50.4184 36.2834 49.8426 36.9937 49.8426C37.7041 49.8426 38.28 50.4184 38.28 51.1288Z" fill="#F40E0E"/>
<path d="M19.9865 0.452189H22.711C23.329 0.452189 23.8509 0.546395 24.2767 0.734807C24.7063 0.923218 25.0322 1.20207 25.2545 1.57136C25.4806 1.93687 25.5937 2.38718 25.5937 2.92227C25.5937 3.29909 25.5164 3.64389 25.3619 3.95665C25.2112 4.26565 24.9926 4.52942 24.7063 4.74798C24.4236 4.96277 24.0845 5.12292 23.6888 5.22843L23.3836 5.34713H20.8231L20.8118 4.45971H22.7449C23.1368 4.45971 23.4627 4.39188 23.7228 4.25623C23.9828 4.1168 24.1787 3.93027 24.3106 3.69664C24.4425 3.46301 24.5084 3.20489 24.5084 2.92227C24.5084 2.60574 24.4463 2.32877 24.3219 2.09137C24.1976 1.85397 24.0016 1.67121 23.7341 1.54309C23.4703 1.41121 23.1293 1.34526 22.711 1.34526H21.0774V8.68202H19.9865V0.452189ZM24.7967 8.68202L22.7958 4.95147L23.9319 4.94581L25.9611 8.61419V8.68202H24.7967Z" fill="#FBFF89"/>
<path d="M29.4995 8.79507C29.0737 8.79507 28.6874 8.72347 28.3407 8.58028C27.9978 8.43332 27.702 8.22795 27.4533 7.96417C27.2084 7.7004 27.02 7.38763 26.8881 7.02588C26.7562 6.66413 26.6902 6.26847 26.6902 5.83889V5.60149C26.6902 5.10408 26.7637 4.66131 26.9107 4.27318C27.0576 3.88129 27.2574 3.54968 27.5098 3.27837C27.7623 3.00705 28.0487 2.80169 28.369 2.66226C28.6893 2.52284 29.0209 2.45312 29.3638 2.45312C29.8009 2.45312 30.1777 2.52849 30.4943 2.67922C30.8146 2.82995 31.0765 3.04097 31.28 3.31228C31.4834 3.57983 31.6342 3.89636 31.7321 4.26188C31.8301 4.62363 31.8791 5.01929 31.8791 5.44887V5.91802H27.312V5.06451H30.8334V4.98538C30.8183 4.71407 30.7618 4.45029 30.6638 4.19405C30.5696 3.93781 30.4189 3.72679 30.2117 3.56099C30.0044 3.39518 29.7218 3.31228 29.3638 3.31228C29.1264 3.31228 28.9078 3.36315 28.7081 3.4649C28.5084 3.56287 28.337 3.70983 28.1938 3.90578C28.0506 4.10173 27.9394 4.34101 27.8603 4.62363C27.7811 4.90625 27.7416 5.2322 27.7416 5.60149V5.83889C27.7416 6.12904 27.7811 6.40224 27.8603 6.65848C27.9432 6.91095 28.0619 7.13328 28.2164 7.32546C28.3746 7.51764 28.5649 7.66837 28.7873 7.77764C29.0134 7.88692 29.2696 7.94156 29.556 7.94156C29.9253 7.94156 30.238 7.8662 30.4943 7.71547C30.7505 7.56474 30.9747 7.36314 31.1669 7.11067L31.8 7.61373C31.6681 7.81344 31.5004 8.00374 31.2969 8.18461C31.0934 8.36549 30.8428 8.51245 30.5451 8.6255C30.2512 8.73855 29.9027 8.79507 29.4995 8.79507Z" fill="#FBFF89"/>
<path d="M34.8805 7.73808L36.5536 2.56617H37.6219L35.4231 8.68202H34.7222L34.8805 7.73808ZM33.4844 2.56617L35.2083 7.76634L35.327 8.68202H34.6262L32.4104 2.56617H33.4844Z" fill="#FBFF89"/>
<path d="M41.0868 8.79507C40.661 8.79507 40.2747 8.72347 39.9281 8.58028C39.5852 8.43332 39.2893 8.22795 39.0406 7.96417C38.7957 7.7004 38.6073 7.38763 38.4754 7.02588C38.3435 6.66413 38.2776 6.26847 38.2776 5.83889V5.60149C38.2776 5.10408 38.3511 4.66131 38.498 4.27318C38.645 3.88129 38.8447 3.54968 39.0972 3.27837C39.3496 3.00705 39.636 2.80169 39.9563 2.66226C40.2766 2.52284 40.6082 2.45312 40.9511 2.45312C41.3883 2.45312 41.7651 2.52849 42.0816 2.67922C42.4019 2.82995 42.6638 3.04097 42.8673 3.31228C43.0708 3.57983 43.2215 3.89636 43.3195 4.26188C43.4175 4.62363 43.4664 5.01929 43.4664 5.44887V5.91802H38.8993V5.06451H42.4208V4.98538C42.4057 4.71407 42.3492 4.45029 42.2512 4.19405C42.157 3.93781 42.0062 3.72679 41.799 3.56099C41.5917 3.39518 41.3091 3.31228 40.9511 3.31228C40.7137 3.31228 40.4952 3.36315 40.2955 3.4649C40.0957 3.56287 39.9243 3.70983 39.7811 3.90578C39.6379 4.10173 39.5267 4.34101 39.4476 4.62363C39.3685 4.90625 39.3289 5.2322 39.3289 5.60149V5.83889C39.3289 6.12904 39.3685 6.40224 39.4476 6.65848C39.5305 6.91095 39.6492 7.13328 39.8037 7.32546C39.962 7.51764 40.1523 7.66837 40.3746 7.77764C40.6007 7.88692 40.8569 7.94156 41.1433 7.94156C41.5126 7.94156 41.8254 7.8662 42.0816 7.71547C42.3379 7.56474 42.5621 7.36314 42.7542 7.11067L43.3873 7.61373C43.2554 7.81344 43.0877 8.00374 42.8842 8.18461C42.6808 8.36549 42.4302 8.51245 42.1325 8.6255C41.8386 8.73855 41.49 8.79507 41.0868 8.79507Z" fill="#FBFF89"/>
<path d="M45.733 3.52707V8.68202H44.6873V2.56617H45.7048L45.733 3.52707ZM47.6435 2.53226L47.6379 3.50446C47.5512 3.48562 47.4683 3.47432 47.3892 3.47055C47.3138 3.46301 47.2271 3.45924 47.1292 3.45924C46.888 3.45924 46.6751 3.49693 46.4904 3.57229C46.3058 3.64766 46.1494 3.75317 46.0213 3.88882C45.8932 4.02448 45.7914 4.18651 45.7161 4.37493C45.6445 4.55957 45.5974 4.76305 45.5748 4.98538L45.2808 5.15495C45.2808 4.78566 45.3166 4.43898 45.3882 4.11492C45.4636 3.79085 45.5785 3.50446 45.733 3.25576C45.8875 3.00329 46.0835 2.80734 46.3209 2.66791C46.562 2.52472 46.8484 2.45312 47.18 2.45312C47.2554 2.45312 47.3421 2.46254 47.44 2.48138C47.538 2.49646 47.6059 2.51342 47.6435 2.53226Z" fill="#FBFF89"/>
<path d="M48.6044 0H49.6558V7.49503L49.5653 8.68202H48.6044V0ZM53.7876 5.57323V5.69192C53.7876 6.13658 53.7349 6.5492 53.6294 6.92979C53.5239 7.30661 53.3694 7.63445 53.1659 7.9133C52.9624 8.19215 52.7137 8.40882 52.4198 8.56332C52.1259 8.71782 51.7886 8.79507 51.408 8.79507C51.0199 8.79507 50.6788 8.72913 50.3849 8.59724C50.0948 8.46158 49.8498 8.26752 49.6501 8.01504C49.4504 7.76257 49.2903 7.45734 49.1697 7.09936C49.0529 6.74138 48.9718 6.33818 48.9266 5.88976V5.36974C48.9718 4.91755 49.0529 4.51247 49.1697 4.15448C49.2903 3.7965 49.4504 3.49127 49.6501 3.2388C49.8498 2.98256 50.0948 2.7885 50.3849 2.65661C50.6751 2.52095 51.0123 2.45312 51.3967 2.45312C51.7811 2.45312 52.1221 2.52849 52.4198 2.67922C52.7175 2.82618 52.9662 3.0372 53.1659 3.31228C53.3694 3.58736 53.5239 3.91708 53.6294 4.30144C53.7349 4.68204 53.7876 5.10596 53.7876 5.57323ZM52.7363 5.69192V5.57323C52.7363 5.268 52.708 4.98161 52.6515 4.71407C52.595 4.44275 52.5046 4.20535 52.3802 4.00187C52.2559 3.79462 52.0919 3.63258 51.8885 3.51577C51.685 3.39518 51.4344 3.33489 51.1367 3.33489C50.8729 3.33489 50.643 3.38011 50.4471 3.47055C50.2549 3.56099 50.091 3.68345 49.9553 3.83795C49.8197 3.98868 49.7085 4.16202 49.6219 4.35797C49.539 4.55015 49.4768 4.74986 49.4353 4.95712V6.31934C49.4956 6.58311 49.5936 6.83747 49.7292 7.0824C49.8687 7.32357 50.0533 7.5214 50.2832 7.6759C50.5168 7.8304 50.8051 7.90765 51.148 7.90765C51.4306 7.90765 51.6718 7.85113 51.8715 7.73808C52.075 7.62126 52.2389 7.46111 52.3633 7.25763C52.4914 7.05414 52.5856 6.81863 52.6459 6.55108C52.7062 6.28354 52.7363 5.99715 52.7363 5.69192Z" fill="#FBFF89"/>
</svg>
