<svg width="73" height="151" viewBox="0 0 73 151" fill="none" xmlns="http://www.w3.org/2000/svg">
<path d="M2.24617 23.437C2.24617 22.0185 3.38745 20.8686 4.79529 20.8686H68.2047C69.6126 20.8686 70.7539 22.0185 70.7539 23.437V148.432C70.7539 149.85 69.6126 151 68.2047 151H4.7953C3.38745 151 2.24617 149.85 2.24617 148.432V23.437Z" fill="#236B93"/>
<path d="M2.24617 60.4736H70.7539V148.432C70.7539 149.85 69.6126 151 68.2047 151H4.7953C3.38745 151 2.24617 149.85 2.24617 148.432V60.4736Z" fill="#178DCF"/>
<path d="M5.61542 104.91C5.61542 103.492 6.7567 102.342 8.16454 102.342H64.8355C66.2434 102.342 67.3847 103.492 67.3847 104.91V141.642C67.3847 143.06 66.2434 144.21 64.8355 144.21H8.16455C6.7567 144.21 5.61542 143.06 5.61542 141.642V104.91Z" fill="#050505"/>
<path d="M28.0771 54.8157C28.0771 54.1908 28.5799 53.6841 29.2002 53.6841H42.6771C43.2973 53.6841 43.8002 54.1908 43.8002 54.8157C43.8002 55.4407 43.2973 55.9473 42.6771 55.9473H29.2002C28.5799 55.9473 28.0771 55.4407 28.0771 54.8157Z" fill="#174B68"/>
<path d="M22.4614 44.6317C22.4614 48.3814 19.4445 51.4212 15.723 51.4212C12.0014 51.4212 8.98452 48.3814 8.98452 44.6317C8.98452 40.882 12.0014 37.8423 15.723 37.8423C19.4445 37.8423 22.4614 40.882 22.4614 44.6317Z" fill="#D9D9D9"/>
<path d="M20.2153 44.6317C20.2153 47.1315 18.204 49.158 15.723 49.158C13.242 49.158 11.2307 47.1315 11.2307 44.6317C11.2307 42.1319 13.242 40.1054 15.723 40.1054C18.204 40.1054 20.2153 42.1319 20.2153 44.6317Z" fill="white"/>
<path d="M62.8923 44.6317C62.8923 48.3814 59.8753 51.4212 56.1538 51.4212C52.4322 51.4212 49.4153 48.3814 49.4153 44.6317C49.4153 40.882 52.4322 37.8423 56.1538 37.8423C59.8753 37.8423 62.8923 40.882 62.8923 44.6317Z" fill="#D9D9D9"/>
<path d="M60.6461 44.6317C60.6461 47.1315 58.6348 49.158 56.1538 49.158C53.6728 49.158 51.6615 47.1315 51.6615 44.6317C51.6615 42.1319 53.6728 40.1054 56.1538 40.1054C58.6348 40.1054 60.6461 42.1319 60.6461 44.6317Z" fill="white"/>
<path d="M44.9231 35.5791C44.9231 40.5787 40.9006 44.6317 35.9385 44.6317C30.9764 44.6317 26.9539 40.5787 26.9539 35.5791C26.9539 30.5794 30.9764 26.5264 35.9385 26.5264C40.9006 26.5264 44.9231 30.5794 44.9231 35.5791Z" fill="#D9D9D9"/>
<path d="M42.677 35.5791C42.677 39.3288 39.6601 42.3685 35.9385 42.3685C32.217 42.3685 29.2 39.3288 29.2 35.5791C29.2 31.8294 32.217 28.7896 35.9385 28.7896C39.6601 28.7896 42.677 31.8294 42.677 35.5791Z" fill="white"/>
<path d="M0 62.7368H2.24615V79.7105H0V62.7368Z" fill="#ABB4BB"/>
<path d="M70.7538 62.7368H73V79.7105H70.7538V62.7368Z" fill="#ABB4BB"/>
<path d="M0 84.2373H2.24615V101.211H0V84.2373Z" fill="#ABB4BB"/>
<path d="M11.4711 27.9316C11.4711 28.6408 10.9004 29.2158 10.1965 29.2158C9.49259 29.2158 8.92195 28.6408 8.92195 27.9316C8.92195 27.2223 9.49259 26.6474 10.1965 26.6474C10.9004 26.6474 11.4711 27.2223 11.4711 27.9316Z" fill="#F40E0E"/>
<path d="M25.4869 8.66843H23.7842L23.7954 7.78239H25.4869C26.0694 7.78239 26.5549 7.66012 26.9432 7.41557C27.3316 7.16725 27.6228 6.82112 27.817 6.37716C28.0149 5.92944 28.1139 5.40648 28.1139 4.80827V4.30599C28.1139 3.8357 28.0578 3.41808 27.9458 3.05314C27.8338 2.68443 27.6695 2.37403 27.4529 2.12196C27.2363 1.86612 26.9712 1.67236 26.6576 1.54068C26.3476 1.409 25.991 1.34315 25.5878 1.34315H23.7506V0.45148H25.5878C26.1217 0.45148 26.609 0.541777 27.0496 0.722369C27.4903 0.899199 27.8693 1.15692 28.1867 1.49553C28.5078 1.83038 28.7542 2.23671 28.926 2.71453C29.0978 3.18858 29.1837 3.72283 29.1837 4.31728V4.80827C29.1837 5.40272 29.0978 5.93885 28.926 6.41667C28.7542 6.89072 28.5059 7.29517 28.1811 7.63002C27.8599 7.96487 27.4716 8.22259 27.016 8.40318C26.5642 8.58001 26.0545 8.66843 25.4869 8.66843ZM24.3611 0.45148V8.66843H23.2801V0.45148H24.3611Z" fill="#FBFF89"/>
<path d="M33.1661 8.7813C32.7441 8.7813 32.3614 8.70981 32.0178 8.56684C31.678 8.42011 31.3849 8.21506 31.1385 7.9517C30.8957 7.68834 30.709 7.37606 30.5783 7.01488C30.4477 6.65369 30.3823 6.25865 30.3823 5.82974V5.59271C30.3823 5.09609 30.4551 4.65401 30.6007 4.26649C30.7464 3.87521 30.9443 3.54412 31.1945 3.27323C31.4446 3.00235 31.7284 2.7973 32.0458 2.65809C32.3632 2.51888 32.6918 2.44928 33.0316 2.44928C33.4648 2.44928 33.8382 2.52453 34.1519 2.67502C34.4692 2.82552 34.7288 3.03621 34.9304 3.30709C35.132 3.57422 35.2814 3.89026 35.3785 4.2552C35.4756 4.61639 35.5241 5.01143 35.5241 5.44034V5.90875H30.9984V5.05658H34.4879V4.97757C34.473 4.70668 34.417 4.44332 34.3199 4.18748C34.2265 3.93164 34.0772 3.72095 33.8718 3.55541C33.6664 3.38987 33.3864 3.30709 33.0316 3.30709C32.7964 3.30709 32.5798 3.35789 32.3819 3.45947C32.184 3.55729 32.0141 3.70402 31.8722 3.89966C31.7303 4.0953 31.6201 4.33421 31.5417 4.61639C31.4633 4.89856 31.4241 5.22401 31.4241 5.59271V5.82974C31.4241 6.11944 31.4633 6.39221 31.5417 6.64805C31.6239 6.90013 31.7415 7.1221 31.8946 7.31398C32.0514 7.50586 32.24 7.65636 32.4603 7.76546C32.6844 7.87457 32.9383 7.92913 33.2221 7.92913C33.588 7.92913 33.8979 7.85388 34.1519 7.70339C34.4058 7.55289 34.6279 7.35161 34.8184 7.09953L35.4457 7.6018C35.315 7.80121 35.1488 7.9912 34.9472 8.1718C34.7456 8.35239 34.4973 8.49912 34.2023 8.61199C33.911 8.72486 33.5656 8.7813 33.1661 8.7813Z" fill="#FBFF89"/>
<path d="M37.8598 0V8.66843H36.818V0H37.8598Z" fill="#FBFF89"/>
<path d="M43.0968 7.62438V4.48094C43.0968 4.24015 43.0483 4.03134 42.9512 3.85451C42.8578 3.67392 42.716 3.53472 42.5255 3.4369C42.3351 3.33907 42.0998 3.29016 41.8198 3.29016C41.5584 3.29016 41.3287 3.33531 41.1308 3.42561C40.9367 3.5159 40.7836 3.63442 40.6715 3.78115C40.5633 3.92788 40.5091 4.0859 40.5091 4.2552H39.4729C39.4729 4.03699 39.5289 3.82065 39.6409 3.6062C39.753 3.39175 39.9135 3.19799 40.1226 3.02492C40.3355 2.84809 40.5894 2.70888 40.8844 2.6073C41.1831 2.50195 41.5154 2.44928 41.8814 2.44928C42.322 2.44928 42.7104 2.52453 43.0464 2.67502C43.3862 2.82552 43.6513 3.05314 43.8418 3.35789C44.0359 3.65887 44.133 4.03699 44.133 4.49223V7.33656C44.133 7.53972 44.1498 7.75606 44.1834 7.98556C44.2208 8.21506 44.2749 8.41259 44.3459 8.57813V8.66843H43.2649C43.2126 8.54803 43.1715 8.38813 43.1416 8.18873C43.1118 7.98556 43.0968 7.79744 43.0968 7.62438ZM43.2761 4.96629L43.2873 5.69994H42.2399C41.9449 5.69994 41.6816 5.7244 41.4501 5.77331C41.2186 5.81845 41.0244 5.88806 40.8676 5.98212C40.7108 6.07617 40.5913 6.19469 40.5091 6.33766C40.427 6.47686 40.3859 6.64053 40.3859 6.82864C40.3859 7.02052 40.4288 7.19547 40.5147 7.35349C40.6006 7.51151 40.7294 7.63755 40.9012 7.7316C41.0767 7.8219 41.2914 7.86705 41.5453 7.86705C41.8627 7.86705 42.1428 7.79933 42.3855 7.66388C42.6282 7.52844 42.8205 7.36289 42.9624 7.16725C43.108 6.97161 43.1864 6.78161 43.1977 6.59726L43.6401 7.09953C43.614 7.25755 43.5431 7.4325 43.4273 7.62438C43.3115 7.81626 43.1566 8.00061 42.9624 8.17744C42.772 8.35051 42.5442 8.49536 42.2791 8.61199C42.0177 8.72486 41.7227 8.7813 41.3941 8.7813C40.9833 8.7813 40.623 8.70041 40.3131 8.53862C40.0069 8.37684 39.7679 8.16051 39.5961 7.88962C39.4281 7.61497 39.3441 7.30834 39.3441 6.96973C39.3441 6.64241 39.4076 6.35459 39.5345 6.10627C39.6615 5.8542 39.8445 5.64539 40.0834 5.47984C40.3224 5.31054 40.6099 5.18262 40.946 5.09609C41.2821 5.00955 41.6573 4.96629 42.0718 4.96629H43.2761Z" fill="#FBFF89"/>
<path d="M47.3761 8.03635L49.062 2.56215H50.171L47.7402 9.61089C47.6841 9.76138 47.6095 9.92316 47.5161 10.0962C47.4265 10.2731 47.3107 10.4405 47.1688 10.5985C47.0269 10.7565 46.8552 10.8844 46.6535 10.9823C46.4556 11.0838 46.2185 11.1346 45.9422 11.1346C45.86 11.1346 45.7555 11.1234 45.6285 11.1008C45.5016 11.0782 45.412 11.0594 45.3597 11.0443L45.3541 10.1978C45.384 10.2016 45.4306 10.2053 45.4941 10.2091C45.5613 10.2166 45.608 10.2204 45.6341 10.2204C45.8694 10.2204 46.0692 10.1884 46.2335 10.1244C46.3978 10.0643 46.5359 9.96079 46.6479 9.81406C46.7637 9.67109 46.8626 9.47357 46.9448 9.22149L47.3761 8.03635ZM46.1382 2.56215L47.7121 7.3027L47.981 8.40318L47.2361 8.78694L45.0068 2.56215H46.1382Z" fill="#FBFF89"/>
</svg>
