<svg width="75" height="152" viewBox="0 0 75 152" fill="none" xmlns="http://www.w3.org/2000/svg">
<path d="M2.93848 24.9051C2.93848 22.6959 4.72934 20.9051 6.93848 20.9051H68.073C70.2821 20.9051 72.073 22.6959 72.073 24.9051V147.241C72.073 149.45 70.2821 151.241 68.073 151.241H6.93848C4.72934 151.241 2.93848 149.45 2.93848 147.241V24.9051Z" fill="#550C86"/>
<path d="M3.24463 26.8338C3.24463 24.6246 5.03549 22.8338 7.24463 22.8338H68.0577C70.2668 22.8338 72.0577 24.6246 72.0577 26.8338V147.456C72.0577 149.665 70.2668 151.456 68.0577 151.456H7.24463C5.03549 151.456 3.24463 149.665 3.24463 147.456V26.8338Z" fill="#7F26BB"/>
<path d="M13.5347 34.5515C13.5347 32.3424 15.3255 30.5515 17.5347 30.5515H62.2699C64.479 30.5515 66.2699 32.3424 66.2699 34.5516V140.382C66.2699 142.592 64.4791 144.382 62.2699 144.382H17.5347C15.3255 144.382 13.5347 142.592 13.5347 140.382V34.5515Z" fill="#222222"/>
<path d="M13.5347 34.5515C13.5347 32.3424 15.3255 30.5515 17.5347 30.5515H62.2699C64.479 30.5515 66.2699 32.3424 66.2699 34.5516V140.382C66.2699 142.592 64.4791 144.382 62.2699 144.382H17.5347C15.3255 144.382 13.5347 142.592 13.5347 140.382V34.5515Z" fill="url(#paint0_linear_2499_36)" fill-opacity="0.2"/>
<path d="M5.81689 138.273C5.81689 136.674 7.11259 135.379 8.7109 135.379C10.3092 135.379 11.6049 136.674 11.6049 138.273V138.916C11.6049 140.514 10.3092 141.81 8.7109 141.81C7.11259 141.81 5.81689 140.514 5.81689 138.916V138.273Z" fill="#222222"/>
<path d="M5.81689 127.983C5.81689 126.384 7.11259 125.089 8.7109 125.089C10.3092 125.089 11.6049 126.384 11.6049 127.983V128.626C11.6049 130.224 10.3092 131.52 8.7109 131.52C7.11259 131.52 5.81689 130.224 5.81689 128.626V127.983Z" fill="#222222"/>
<path d="M0.671875 62.8387H2.93858V79.8389H0.671875V62.8387Z" fill="#ABB4BB"/>
<path d="M72.0732 62.8387H74.3399V79.8389H72.0732V62.8387Z" fill="#ABB4BB"/>
<path d="M0.671875 84.3728H2.93858V101.373H0.671875V84.3728Z" fill="#ABB4BB"/>
<path d="M10.319 120.585C10.319 121.295 9.74317 121.871 9.03281 121.871C8.32244 121.871 7.74658 121.295 7.74658 120.585C7.74658 119.874 8.32244 119.299 9.03281 119.299C9.74317 119.299 10.319 119.874 10.319 120.585Z" fill="#F40E0E"/>
<path d="M28.332 6.19498L29.9656 0.452189H30.7569L30.2991 2.68487L28.5412 8.68202H27.7555L28.332 6.19498ZM26.642 0.452189L27.942 6.08194L28.332 8.68202H27.552L25.5567 0.452189H26.642ZM32.8709 6.07628L34.1427 0.452189H35.2336L33.2439 8.68202H32.4639L32.8709 6.07628ZM30.8756 0.452189L32.4639 6.19498L33.0405 8.68202H32.2548L30.5591 2.68487L30.0956 0.452189H30.8756Z" fill="#FBFF89"/>
<path d="M37.3306 0V8.68202H36.2849V0H37.3306ZM37.0819 5.39235L36.6467 5.37539C36.6504 4.95712 36.7126 4.57087 36.8332 4.21666C36.9538 3.85868 37.1233 3.5478 37.3419 3.28402C37.5605 3.02024 37.8205 2.81676 38.1219 2.67357C38.4272 2.5266 38.7644 2.45312 39.1337 2.45312C39.4352 2.45312 39.7065 2.49457 39.9476 2.57748C40.1888 2.65661 40.3942 2.78473 40.5637 2.96184C40.7371 3.13894 40.869 3.36881 40.9594 3.65142C41.0498 3.93027 41.0951 4.2713 41.0951 4.6745V8.68202H40.0437V4.6632C40.0437 4.3429 39.9966 4.08665 39.9024 3.89447C39.8082 3.69853 39.6707 3.55722 39.4898 3.47055C39.3089 3.38011 39.0866 3.33489 38.8228 3.33489C38.5628 3.33489 38.3254 3.38953 38.1106 3.49881C37.8996 3.60809 37.7168 3.75882 37.5623 3.951C37.4116 4.14318 37.2929 4.36362 37.2062 4.61232C37.1233 4.85726 37.0819 5.11727 37.0819 5.39235Z" fill="#FBFF89"/>
<path d="M46.267 7.63634V4.48797C46.267 4.2468 46.218 4.03767 46.12 3.86056C46.0258 3.67968 45.8826 3.54026 45.6904 3.44229C45.4982 3.34431 45.2609 3.29532 44.9782 3.29532C44.7145 3.29532 44.4827 3.34054 44.283 3.43098C44.087 3.52142 43.9325 3.64012 43.8195 3.78708C43.7102 3.93404 43.6556 4.09231 43.6556 4.26188H42.6099C42.6099 4.04332 42.6664 3.82665 42.7795 3.61186C42.8925 3.39707 43.0546 3.203 43.2656 3.02966C43.4804 2.85256 43.7366 2.71313 44.0343 2.61139C44.3357 2.50588 44.6711 2.45312 45.0404 2.45312C45.4851 2.45312 45.877 2.52849 46.2161 2.67922C46.559 2.82995 46.8266 3.05793 47.0187 3.36315C47.2147 3.66461 47.3127 4.04332 47.3127 4.49928V7.34807C47.3127 7.55155 47.3296 7.76822 47.3635 7.99809C47.4012 8.22795 47.4559 8.42578 47.5274 8.59158V8.68202H46.4365C46.3838 8.56144 46.3423 8.40129 46.3122 8.20157C46.282 7.99809 46.267 7.80967 46.267 7.63634ZM46.4478 4.97407L46.4592 5.70888H45.4022C45.1045 5.70888 44.8388 5.73338 44.6052 5.78236C44.3715 5.82758 44.1756 5.89729 44.0173 5.9915C43.8591 6.08571 43.7385 6.2044 43.6556 6.3476C43.5727 6.48702 43.5312 6.65094 43.5312 6.83935C43.5312 7.03153 43.5746 7.20676 43.6612 7.36502C43.7479 7.52329 43.8779 7.64952 44.0512 7.74373C44.2284 7.83417 44.445 7.87939 44.7013 7.87939C45.0216 7.87939 45.3042 7.81156 45.5491 7.6759C45.7941 7.54025 45.9881 7.37444 46.1313 7.17849C46.2783 6.98255 46.3574 6.79225 46.3687 6.60761L46.8153 7.11067C46.7889 7.26893 46.7173 7.44416 46.6005 7.63634C46.4836 7.82852 46.3273 8.01316 46.1313 8.19027C45.9391 8.36361 45.7093 8.50868 45.4417 8.6255C45.1779 8.73855 44.8803 8.79507 44.5487 8.79507C44.1341 8.79507 43.7705 8.71405 43.4577 8.55202C43.1488 8.38998 42.9076 8.17331 42.7342 7.902C42.5647 7.62691 42.4799 7.3198 42.4799 6.98066C42.4799 6.65283 42.544 6.36455 42.6721 6.11585C42.8002 5.86338 42.9848 5.65424 43.226 5.48844C43.4672 5.31887 43.7573 5.19075 44.0965 5.10408C44.4356 5.01741 44.8143 4.97407 45.2326 4.97407H46.4478Z" fill="#FBFF89"/>
<defs>
<linearGradient id="paint0_linear_2499_36" x1="37.5059" y1="0" x2="37.5059" y2="151.456" gradientUnits="userSpaceOnUse">
<stop stop-opacity="0"/>
<stop offset="1"/>
</linearGradient>
</defs>
</svg>
