<svg width="75" height="152" viewBox="0 0 75 152" fill="none" xmlns="http://www.w3.org/2000/svg">
<path d="M2.93457 24.9051C2.93457 22.6959 4.72543 20.9051 6.93457 20.9051H68.0691C70.2782 20.9051 72.0691 22.6959 72.0691 24.9051V147.241C72.0691 149.45 70.2782 151.241 68.0691 151.241H6.93457C4.72543 151.241 2.93457 149.45 2.93457 147.241V24.9051Z" fill="#DC8737"/>
<path d="M38.6115 51.1298C38.6115 51.8401 38.0356 52.416 37.3253 52.416C36.6149 52.416 36.0391 51.8401 36.0391 51.1298C36.0391 50.4194 36.6149 49.8435 37.3253 49.8435C38.0356 49.8435 38.6115 50.4194 38.6115 51.1298Z" fill="#F40E0E"/>
<path d="M2.93457 64.5721C2.93457 62.3629 4.72543 60.5721 6.93457 60.5721H68.0691C70.2782 60.5721 72.0691 62.3629 72.0691 64.5721V147.241C72.0691 149.45 70.2782 151.241 68.0691 151.241H6.93457C4.72543 151.241 2.93457 149.45 2.93457 147.241V64.5721Z" fill="#FFA34D"/>
<path d="M6.33496 106.506C6.33496 104.297 8.12582 102.506 10.335 102.506H64.6693C66.8785 102.506 68.6693 104.297 68.6693 106.506V140.44C68.6693 142.649 66.8785 144.44 64.6693 144.44H10.335C8.12582 144.44 6.33496 142.649 6.33496 140.44V106.506Z" fill="#050505"/>
<path d="M19.4132 39.2833C19.4132 43.0389 16.3687 46.0834 12.6131 46.0834C8.8575 46.0834 5.81299 43.0389 5.81299 39.2833C5.81299 35.5277 8.8575 32.4832 12.6131 32.4832C16.3687 32.4832 19.4132 35.5277 19.4132 39.2833Z" fill="#D9D9D9"/>
<path d="M17.1464 39.2832C17.1464 41.7869 15.1167 43.8166 12.613 43.8166C10.1093 43.8166 8.07959 41.7869 8.07959 39.2832C8.07959 36.7795 10.1093 34.7498 12.613 34.7498C15.1167 34.7498 17.1464 36.7795 17.1464 39.2832Z" fill="white"/>
<path d="M36.1339 39.2833C36.1339 43.0389 33.0894 46.0834 29.3338 46.0834C25.5782 46.0834 22.5337 43.0389 22.5337 39.2833C22.5337 35.5277 25.5782 32.4832 29.3338 32.4832C33.0894 32.4832 36.1339 35.5277 36.1339 39.2833Z" fill="#D9D9D9"/>
<path d="M33.8671 39.2832C33.8671 41.7869 31.8374 43.8166 29.3337 43.8166C26.83 43.8166 24.8003 41.7869 24.8003 39.2832C24.8003 36.7795 26.83 34.7498 29.3337 34.7498C31.8374 34.7498 33.8671 36.7795 33.8671 39.2832Z" fill="white"/>
<path d="M52.8551 39.5616C52.8551 43.3172 49.8106 46.3617 46.055 46.3617C42.2994 46.3617 39.2549 43.3172 39.2549 39.5616C39.2549 35.806 42.2994 32.7615 46.055 32.7615C49.8106 32.7615 52.8551 35.806 52.8551 39.5616Z" fill="#D9D9D9"/>
<path d="M50.5883 39.5627C50.5883 42.0664 48.5586 44.0961 46.0549 44.0961C43.5512 44.0961 41.5215 42.0664 41.5215 39.5627C41.5215 37.0589 43.5512 35.0293 46.0549 35.0293C48.5586 35.0293 50.5883 37.0589 50.5883 39.5627Z" fill="white"/>
<path d="M69.5753 39.2823C69.5753 43.0379 66.5308 46.0824 62.7752 46.0824C59.0196 46.0824 55.9751 43.0379 55.9751 39.2823C55.9751 35.5267 59.0196 32.4822 62.7752 32.4822C66.5308 32.4822 69.5753 35.5267 69.5753 39.2823Z" fill="#D9D9D9"/>
<path d="M67.3095 39.2822C67.3095 41.786 65.2798 43.8156 62.7761 43.8156C60.2724 43.8156 58.2427 41.786 58.2427 39.2822C58.2427 36.7785 60.2724 34.7488 62.7761 34.7488C65.2798 34.7488 67.3095 36.7785 67.3095 39.2822Z" fill="white"/>
<path d="M0.667969 62.8387H2.93467V79.8389H0.667969V62.8387Z" fill="#ABB4BB"/>
<path d="M72.0693 62.8387H74.336V79.8389H72.0693V62.8387Z" fill="#ABB4BB"/>
<path d="M0.667969 84.3728H2.93467V101.373H0.667969V84.3728Z" fill="#ABB4BB"/>
<path d="M19.1386 4.3071V4.82711C19.1386 5.4451 19.0613 5.99904 18.9068 6.48891C18.7523 6.97878 18.53 7.39517 18.2398 7.73808C17.9497 8.08099 17.6011 8.34288 17.1942 8.52376C16.7909 8.70463 16.3388 8.79507 15.8376 8.79507C15.3515 8.79507 14.9049 8.70463 14.498 8.52376C14.0948 8.34288 13.7443 8.08099 13.4466 7.73808C13.1527 7.39517 12.9247 6.97878 12.7627 6.48891C12.6007 5.99904 12.5197 5.4451 12.5197 4.82711V4.3071C12.5197 3.68911 12.5988 3.13706 12.757 2.65096C12.9191 2.16108 13.1471 1.74469 13.441 1.40178C13.7349 1.05511 14.0835 0.79133 14.4867 0.610455C14.8936 0.429579 15.3402 0.339141 15.8263 0.339141C16.3275 0.339141 16.7796 0.429579 17.1828 0.610455C17.5898 0.79133 17.9384 1.05511 18.2285 1.40178C18.5225 1.74469 18.7467 2.16108 18.9012 2.65096C19.0594 3.13706 19.1386 3.68911 19.1386 4.3071ZM18.059 4.82711V4.29579C18.059 3.80592 18.0081 3.37257 17.9063 2.99575C17.8084 2.61893 17.6633 2.30239 17.4711 2.04615C17.2789 1.78991 17.0434 1.59585 16.7646 1.46396C16.4895 1.33207 16.1767 1.26613 15.8263 1.26613C15.4871 1.26613 15.18 1.33207 14.9049 1.46396C14.6336 1.59585 14.4 1.78991 14.2041 2.04615C14.0119 2.30239 13.863 2.61893 13.7575 2.99575C13.652 3.37257 13.5993 3.80592 13.5993 4.29579V4.82711C13.5993 5.32075 13.652 5.75787 13.7575 6.13846C13.863 6.51528 14.0138 6.8337 14.2097 7.09371C14.4094 7.34995 14.6449 7.54401 14.9163 7.6759C15.1913 7.80779 15.4984 7.87373 15.8376 7.87373C16.1918 7.87373 16.5064 7.80779 16.7815 7.6759C17.0566 7.54401 17.2884 7.34995 17.4768 7.09371C17.6689 6.8337 17.814 6.51528 17.912 6.13846C18.01 5.75787 18.059 5.32075 18.059 4.82711Z" fill="#FBFF89"/>
<path d="M22.4735 7.73808L24.1465 2.56617H25.2148L23.0161 8.68202H22.3152L22.4735 7.73808ZM21.0773 2.56617L22.8013 7.76634L22.92 8.68202H22.2191L20.0034 2.56617H21.0773Z" fill="#FBFF89"/>
<path d="M28.6797 8.79507C28.2539 8.79507 27.8677 8.72347 27.521 8.58028C27.1781 8.43332 26.8823 8.22795 26.6336 7.96417C26.3887 7.7004 26.2002 7.38763 26.0684 7.02588C25.9365 6.66413 25.8705 6.26847 25.8705 5.83889V5.60149C25.8705 5.10408 25.944 4.66131 26.091 4.27318C26.2379 3.88129 26.4376 3.54968 26.6901 3.27837C26.9426 3.00705 27.229 2.80169 27.5493 2.66226C27.8696 2.52284 28.2012 2.45312 28.5441 2.45312C28.9812 2.45312 29.358 2.52849 29.6746 2.67922C29.9949 2.82995 30.2568 3.04097 30.4602 3.31228C30.6637 3.57983 30.8144 3.89636 30.9124 4.26188C31.0104 4.62363 31.0594 5.01929 31.0594 5.44887V5.91802H26.4923V5.06451H30.0137V4.98538C29.9986 4.71407 29.9421 4.45029 29.8441 4.19405C29.7499 3.93781 29.5992 3.72679 29.3919 3.56099C29.1847 3.39518 28.9021 3.31228 28.5441 3.31228C28.3067 3.31228 28.0881 3.36315 27.8884 3.4649C27.6887 3.56287 27.5172 3.70983 27.374 3.90578C27.2309 4.10173 27.1197 4.34101 27.0406 4.62363C26.9614 4.90625 26.9219 5.2322 26.9219 5.60149V5.83889C26.9219 6.12904 26.9614 6.40224 27.0406 6.65848C27.1235 6.91095 27.2422 7.13328 27.3967 7.32546C27.5549 7.51764 27.7452 7.66837 27.9675 7.77764C28.1936 7.88692 28.4499 7.94156 28.7363 7.94156C29.1056 7.94156 29.4183 7.8662 29.6746 7.71547C29.9308 7.56474 30.155 7.36314 30.3472 7.11067L30.9803 7.61373C30.8484 7.81344 30.6807 8.00374 30.4772 8.18461C30.2737 8.36549 30.0231 8.51245 29.7254 8.6255C29.4315 8.73855 29.0829 8.79507 28.6797 8.79507Z" fill="#FBFF89"/>
<path d="M33.326 3.52707V8.68202H32.2803V2.56617H33.2977L33.326 3.52707ZM35.2365 2.53226L35.2308 3.50446C35.1442 3.48562 35.0613 3.47432 34.9821 3.47055C34.9068 3.46301 34.8201 3.45924 34.7221 3.45924C34.4809 3.45924 34.268 3.49693 34.0834 3.57229C33.8988 3.64766 33.7424 3.75317 33.6143 3.88882C33.4861 4.02448 33.3844 4.18651 33.309 4.37493C33.2374 4.55957 33.1903 4.76305 33.1677 4.98538L32.8738 5.15495C32.8738 4.78566 32.9096 4.43898 32.9812 4.11492C33.0565 3.79085 33.1715 3.50446 33.326 3.25576C33.4805 3.00329 33.6764 2.80734 33.9138 2.66791C34.155 2.52472 34.4414 2.45312 34.773 2.45312C34.8483 2.45312 34.935 2.46254 35.033 2.48138C35.131 2.49646 35.1988 2.51342 35.2365 2.53226Z" fill="#FBFF89"/>
<path d="M39.9449 7.49503V0H40.9962V8.68202H40.0353L39.9449 7.49503ZM35.83 5.69192V5.57323C35.83 5.10596 35.8865 4.68204 35.9995 4.30144C36.1164 3.91708 36.2803 3.58736 36.4913 3.31228C36.7061 3.0372 36.9604 2.82618 37.2544 2.67922C37.5521 2.52849 37.8837 2.45312 38.2492 2.45312C38.6335 2.45312 38.9689 2.52095 39.2553 2.65661C39.5455 2.7885 39.7904 2.98256 39.9901 3.2388C40.1936 3.49127 40.3537 3.7965 40.4706 4.15448C40.5874 4.51247 40.6684 4.91755 40.7136 5.36974V5.88976C40.6722 6.33818 40.5911 6.74138 40.4706 7.09936C40.3537 7.45734 40.1936 7.76257 39.9901 8.01504C39.7904 8.26752 39.5455 8.46158 39.2553 8.59724C38.9651 8.72913 38.626 8.79507 38.2379 8.79507C37.8799 8.79507 37.5521 8.71782 37.2544 8.56332C36.9604 8.40882 36.7061 8.19215 36.4913 7.9133C36.2803 7.63445 36.1164 7.30661 35.9995 6.92979C35.8865 6.5492 35.83 6.13658 35.83 5.69192ZM36.8813 5.57323V5.69192C36.8813 5.99715 36.9115 6.28354 36.9718 6.55108C37.0358 6.81863 37.1338 7.05414 37.2657 7.25763C37.3976 7.46111 37.5652 7.62126 37.7687 7.73808C37.9722 7.85113 38.2153 7.90765 38.4979 7.90765C38.8446 7.90765 39.1291 7.83417 39.3514 7.68721C39.5775 7.54025 39.7584 7.34618 39.894 7.10501C40.0297 6.86385 40.1352 6.60195 40.2106 6.31934V4.95712C40.1653 4.74986 40.0994 4.55015 40.0127 4.35797C39.9298 4.16202 39.8205 3.98868 39.6849 3.83795C39.553 3.68345 39.3891 3.56099 39.1931 3.47055C39.0009 3.38011 38.773 3.33489 38.5092 3.33489C38.2228 3.33489 37.976 3.39518 37.7687 3.51577C37.5652 3.63258 37.3976 3.79462 37.2657 4.00187C37.1338 4.20535 37.0358 4.44275 36.9718 4.71407C36.9115 4.98161 36.8813 5.268 36.8813 5.57323Z" fill="#FBFF89"/>
<path d="M43.6698 3.52707V8.68202H42.6241V2.56617H43.6415L43.6698 3.52707ZM45.5803 2.53226L45.5746 3.50446C45.488 3.48562 45.4051 3.47432 45.3259 3.47055C45.2506 3.46301 45.1639 3.45924 45.0659 3.45924C44.8248 3.45924 44.6119 3.49693 44.4272 3.57229C44.2426 3.64766 44.0862 3.75317 43.9581 3.88882C43.8299 4.02448 43.7282 4.18651 43.6528 4.37493C43.5812 4.55957 43.5341 4.76305 43.5115 4.98538L43.2176 5.15495C43.2176 4.78566 43.2534 4.43898 43.325 4.11492C43.4004 3.79085 43.5153 3.50446 43.6698 3.25576C43.8243 3.00329 44.0202 2.80734 44.2576 2.66791C44.4988 2.52472 44.7852 2.45312 45.1168 2.45312C45.1922 2.45312 45.2788 2.46254 45.3768 2.48138C45.4748 2.49646 45.5426 2.51342 45.5803 2.53226Z" fill="#FBFF89"/>
<path d="M47.683 2.56617V8.68202H46.6316V2.56617H47.683ZM46.5525 0.943944C46.5525 0.774373 46.6034 0.63118 46.7051 0.514365C46.8106 0.397549 46.9651 0.339141 47.1686 0.339141C47.3683 0.339141 47.5209 0.397549 47.6264 0.514365C47.7357 0.63118 47.7904 0.774373 47.7904 0.943944C47.7904 1.10598 47.7357 1.2454 47.6264 1.36222C47.5209 1.47527 47.3683 1.53179 47.1686 1.53179C46.9651 1.53179 46.8106 1.47527 46.7051 1.36222C46.6034 1.2454 46.5525 1.10598 46.5525 0.943944Z" fill="#FBFF89"/>
<path d="M51.2213 7.73808L52.8944 2.56617H53.9627L51.764 8.68202H51.0631L51.2213 7.73808ZM49.8252 2.56617L51.5492 7.76634L51.6679 8.68202H50.967L48.7513 2.56617H49.8252Z" fill="#FBFF89"/>
<path d="M57.4276 8.79507C57.0018 8.79507 56.6156 8.72347 56.2689 8.58028C55.926 8.43332 55.6302 8.22795 55.3815 7.96417C55.1365 7.7004 54.9481 7.38763 54.8162 7.02588C54.6844 6.66413 54.6184 6.26847 54.6184 5.83889V5.60149C54.6184 5.10408 54.6919 4.66131 54.8389 4.27318C54.9858 3.88129 55.1855 3.54968 55.438 3.27837C55.6905 3.00705 55.9769 2.80169 56.2972 2.66226C56.6175 2.52284 56.9491 2.45312 57.292 2.45312C57.7291 2.45312 58.1059 2.52849 58.4224 2.67922C58.7427 2.82995 59.0046 3.04097 59.2081 3.31228C59.4116 3.57983 59.5623 3.89636 59.6603 4.26188C59.7583 4.62363 59.8073 5.01929 59.8073 5.44887V5.91802H55.2402V5.06451H58.7616V4.98538C58.7465 4.71407 58.69 4.45029 58.592 4.19405C58.4978 3.93781 58.3471 3.72679 58.1398 3.56099C57.9326 3.39518 57.65 3.31228 57.292 3.31228C57.0546 3.31228 56.836 3.36315 56.6363 3.4649C56.4366 3.56287 56.2651 3.70983 56.1219 3.90578C55.9787 4.10173 55.8676 4.34101 55.7884 4.62363C55.7093 4.90625 55.6698 5.2322 55.6698 5.60149V5.83889C55.6698 6.12904 55.7093 6.40224 55.7884 6.65848C55.8713 6.91095 55.9901 7.13328 56.1445 7.32546C56.3028 7.51764 56.4931 7.66837 56.7154 7.77764C56.9415 7.88692 57.1978 7.94156 57.4842 7.94156C57.8534 7.94156 58.1662 7.8662 58.4224 7.71547C58.6787 7.56474 58.9029 7.36314 59.0951 7.11067L59.7281 7.61373C59.5963 7.81344 59.4286 8.00374 59.2251 8.18461C59.0216 8.36549 58.771 8.51245 58.4733 8.6255C58.1794 8.73855 57.8308 8.79507 57.4276 8.79507Z" fill="#FBFF89"/>
</svg>
