<svg width="73" height="151" viewBox="0 0 73 151" fill="none" xmlns="http://www.w3.org/2000/svg">
<path d="M2.23644 26.4016C2.23644 24.1925 4.0273 22.4016 6.23644 22.4016H66.4495C68.6586 22.4016 70.4495 24.1925 70.4495 26.4016V147C70.4495 149.209 68.6586 151 66.4495 151H6.23643C4.02729 151 2.23644 149.209 2.23644 147V26.4016Z" fill="#707585"/>
<path d="M62.185 29.3818C62.185 30.0827 61.6168 30.6509 60.9159 30.6509C60.215 30.6509 59.6468 30.0827 59.6468 29.3818C59.6468 28.6809 60.215 28.1127 60.9159 28.1127C61.6168 28.1127 62.185 28.6809 62.185 29.3818Z" fill="#F40E0E"/>
<path d="M8.88395 28.1129H11.3356V56.6672H8.88395V28.1129Z" fill="#333333"/>
<path d="M8.88395 48.3751C8.88395 47.6981 9.43276 47.1493 10.1098 47.1493C10.7868 47.1493 11.3356 47.6981 11.3356 48.3751V49.0962C11.3356 49.7732 10.7868 50.322 10.1098 50.322C9.43276 50.322 8.88395 49.7732 8.88395 49.0962V48.3751Z" fill="white"/>
<path d="M14.6041 28.1129H17.0558V56.6672H14.6041V28.1129Z" fill="#333333"/>
<path d="M14.6041 45.8366C14.6041 45.1596 15.153 44.6107 15.83 44.6107C16.507 44.6107 17.0558 45.1596 17.0558 45.8366V46.5576C17.0558 47.2346 16.507 47.7834 15.83 47.7834C15.153 47.7834 14.6041 47.2346 14.6041 46.5576V45.8366Z" fill="white"/>
<path d="M20.3248 28.1129H22.7764V56.6672H20.3248V28.1129Z" fill="#333333"/>
<path d="M20.3248 43.2991C20.3248 42.6221 20.8736 42.0733 21.5506 42.0733C22.2277 42.0733 22.7765 42.6221 22.7765 43.2991V44.0201C22.7765 44.6971 22.2277 45.246 21.5506 45.246C20.8736 45.246 20.3248 44.6971 20.3248 44.0201V43.2991Z" fill="white"/>
<path d="M26.0451 28.1129H28.4967V56.6672H26.0451V28.1129Z" fill="#333333"/>
<path d="M26.045 39.4918C26.045 38.8148 26.5938 38.266 27.2708 38.266C27.9478 38.266 28.4967 38.8148 28.4967 39.4918V40.2129C28.4967 40.8899 27.9478 41.4387 27.2708 41.4387C26.5938 41.4387 26.045 40.8899 26.045 40.2129V39.4918Z" fill="white"/>
<path d="M31.7658 28.113H34.2175V56.6674H31.7658V28.113Z" fill="#333333"/>
<path d="M31.7657 35.6845C31.7657 35.0075 32.3145 34.4587 32.9915 34.4587C33.6685 34.4587 34.2174 35.0075 34.2174 35.6845V36.4056C34.2174 37.0826 33.6685 37.6314 32.9915 37.6314C32.3145 37.6314 31.7657 37.0826 31.7657 36.4056V35.6845Z" fill="white"/>
<path d="M37.4859 28.1129H39.9375V56.6672H37.4859V28.1129Z" fill="#333333"/>
<path d="M37.4859 41.3954C37.4859 40.7184 38.0347 40.1696 38.7117 40.1696C39.3887 40.1696 39.9375 40.7184 39.9375 41.3954V42.1165C39.9375 42.7935 39.3887 43.3423 38.7117 43.3423C38.0347 43.3423 37.4859 42.7935 37.4859 42.1165V41.3954Z" fill="white"/>
<path d="M43.2066 28.1129H45.6582V56.6672H43.2066V28.1129Z" fill="#333333"/>
<path d="M43.2066 43.2991C43.2066 42.6221 43.7554 42.0733 44.4324 42.0733C45.1094 42.0733 45.6582 42.6221 45.6582 43.2991V44.0201C45.6582 44.6971 45.1094 45.246 44.4324 45.246C43.7554 45.246 43.2066 44.6971 43.2066 44.0201V43.2991Z" fill="white"/>
<path d="M48.9273 28.1129H51.3789V56.6672H48.9273V28.1129Z" fill="#333333"/>
<path d="M48.9273 48.3751C48.9273 47.6981 49.4761 47.1493 50.1531 47.1493C50.8301 47.1493 51.3789 47.6981 51.3789 48.3751V49.0962C51.3789 49.7732 50.8301 50.322 50.1531 50.322C49.4761 50.322 48.9273 49.7732 48.9273 49.0962V48.3751Z" fill="white"/>
<path d="M54.6473 28.113H57.0989V56.6673H54.6473V28.113Z" fill="#333333"/>
<path d="M54.6475 42.0293C54.6475 41.3523 55.1963 40.8035 55.8733 40.8035C56.5503 40.8035 57.0991 41.3523 57.0991 42.0293V42.7503C57.0991 43.4273 56.5503 43.9762 55.8733 43.9762C55.1963 43.9762 54.6475 43.4273 54.6475 42.7503V42.0293Z" fill="white"/>
<path d="M63.5407 28.1129H65.9923V56.6672H63.5407V28.1129Z" fill="#333333"/>
<path d="M63.5407 35.6845C63.5407 35.0075 64.0895 34.4587 64.7665 34.4587C65.4435 34.4587 65.9923 35.0075 65.9923 35.6845V36.4056C65.9923 37.0826 65.4435 37.6314 64.7665 37.6314C64.0895 37.6314 63.5407 37.0826 63.5407 36.4056V35.6845Z" fill="white"/>
<path d="M2.23644 61.5401H70.4495V147C70.4495 149.209 68.6586 151 66.4495 151H6.23643C4.02729 151 2.23644 149.209 2.23644 147V61.5401Z" fill="#9297A7"/>
<path d="M5.59135 106.915C5.59135 104.706 7.38222 102.915 9.59135 102.915H63.0949C65.304 102.915 67.0949 104.706 67.0949 106.915V140.291C67.0949 142.5 65.304 144.291 63.0949 144.291H9.59135C7.38221 144.291 5.59135 142.5 5.59135 140.291V106.915Z" fill="#050505"/>
<path d="M0 63.777H2.23649V80.5507H0V63.777Z" fill="#ABB4BB"/>
<path d="M70.4496 63.777H72.6861V80.5507H70.4496V63.777Z" fill="#ABB4BB"/>
<path d="M0 85.024H2.23649V101.798H0V85.024Z" fill="#ABB4BB"/>
<path d="M12.7735 7.69071V8.5663H8.47361V7.69071H12.7735ZM8.69111 0.446162V8.5663H7.61475V0.446162H8.69111ZM12.2046 3.93738V4.81297H8.47361V3.93738H12.2046ZM12.7177 0.446162V1.32733H8.47361V0.446162H12.7177Z" fill="#FBFF89"/>
<path d="M17.6367 10.8863V3.69199L17.7259 2.53197H18.674V10.8863H17.6367ZM13.5822 5.61606V5.49894C13.5822 5.03791 13.6361 4.61963 13.7439 4.24411C13.8517 3.86487 14.0097 3.53955 14.2179 3.26813C14.4261 2.99672 14.6771 2.78851 14.9708 2.64351C15.2683 2.49479 15.6066 2.42043 15.9859 2.42043C16.3651 2.42043 16.6979 2.48735 16.9841 2.6212C17.2741 2.75133 17.5195 2.94281 17.7203 3.19563C17.9248 3.44474 18.0865 3.7459 18.2055 4.09911C18.3245 4.45232 18.4063 4.85201 18.4509 5.29817V5.81125C18.41 6.2537 18.3301 6.65153 18.2111 7.00474C18.0921 7.35795 17.9304 7.65911 17.7259 7.90821C17.5251 8.15732 17.2779 8.3488 16.9841 8.48265C16.6941 8.61278 16.3577 8.67784 15.9747 8.67784C15.6029 8.67784 15.2683 8.60162 14.9708 8.44919C14.6771 8.29675 14.4261 8.08296 14.2179 7.80783C14.0134 7.53269 13.8554 7.20923 13.7439 6.83743C13.6361 6.46191 13.5822 6.05478 13.5822 5.61606ZM14.6195 5.49894V5.61606C14.6195 5.91722 14.6511 6.20165 14.7143 6.46934C14.7775 6.73332 14.8742 6.96756 15.0043 7.17205C15.1381 7.37654 15.3055 7.53827 15.5062 7.65725C15.7107 7.77251 15.9524 7.83014 16.2312 7.83014C16.5733 7.83014 16.8577 7.75578 17.0845 7.60706C17.315 7.45833 17.4991 7.26314 17.6367 7.02147C17.7742 6.77608 17.8802 6.51396 17.9545 6.23511V4.89105C17.9136 4.68656 17.8486 4.48764 17.7593 4.29431C17.6738 4.10097 17.5623 3.92808 17.4247 3.77564C17.2872 3.61949 17.1198 3.49679 16.9228 3.40756C16.7295 3.31461 16.5027 3.26813 16.2424 3.26813C15.9598 3.26813 15.7163 3.32762 15.5118 3.4466C15.3073 3.56557 15.1381 3.72917 15.0043 3.93738C14.8742 4.14187 14.7775 4.37796 14.7143 4.64566C14.6511 4.91335 14.6195 5.19778 14.6195 5.49894Z" fill="#FBFF89"/>
<path d="M24.0223 7.17205V2.53197H25.0597V8.5663H24.0725L24.0223 7.17205ZM24.2175 5.90049L24.647 5.88933C24.647 6.29088 24.6042 6.66268 24.5187 7.00474C24.4369 7.34308 24.303 7.6368 24.1171 7.88591C23.9312 8.13501 23.6877 8.33021 23.3866 8.47149C23.0854 8.60906 22.7192 8.67784 22.2879 8.67784C21.9942 8.67784 21.7246 8.63509 21.4792 8.54957C21.2375 8.46406 21.0293 8.33207 20.8546 8.1536C20.6798 7.97514 20.5441 7.74276 20.4475 7.45648C20.3545 7.17019 20.308 6.82627 20.308 6.42473V2.53197H21.3398V6.43588C21.3398 6.7073 21.3695 6.93224 21.429 7.1107C21.4922 7.28545 21.5759 7.42487 21.68 7.52898C21.7878 7.62936 21.9068 7.70001 22.0369 7.7409C22.1708 7.7818 22.3083 7.80225 22.4496 7.80225C22.8883 7.80225 23.236 7.7186 23.4925 7.55128C23.7491 7.38026 23.9331 7.1516 24.0446 6.86531C24.1599 6.57531 24.2175 6.2537 24.2175 5.90049Z" fill="#FBFF89"/>
<path d="M30.1905 7.53455V4.42815C30.1905 4.1902 30.1422 3.98385 30.0455 3.8091C29.9526 3.63064 29.8113 3.49307 29.6217 3.3964C29.432 3.29974 29.1978 3.2514 28.919 3.2514C28.6587 3.2514 28.43 3.29602 28.233 3.38525C28.0397 3.47448 27.8872 3.5916 27.7757 3.7366C27.6679 3.88161 27.6139 4.03776 27.6139 4.20507H26.5822C26.5822 3.98943 26.638 3.77564 26.7495 3.56372C26.861 3.35179 27.0209 3.16031 27.2291 2.98928C27.4411 2.81454 27.6939 2.67697 27.9876 2.57658C28.285 2.47248 28.6159 2.42043 28.9803 2.42043C29.419 2.42043 29.8057 2.49479 30.1403 2.64351C30.4787 2.79223 30.7426 3.01717 30.9323 3.31833C31.1256 3.61577 31.2223 3.98943 31.2223 4.43931V7.25013C31.2223 7.4509 31.239 7.66468 31.2725 7.89148C31.3096 8.11828 31.3636 8.31348 31.4342 8.47707V8.5663H30.3578C30.3058 8.44733 30.2649 8.28931 30.2351 8.09226C30.2054 7.89148 30.1905 7.70558 30.1905 7.53455ZM30.369 4.90778L30.3801 5.63279H29.3372C29.0435 5.63279 28.7814 5.65696 28.5509 5.70529C28.3204 5.74991 28.127 5.81869 27.9709 5.91164C27.8147 6.00459 27.6957 6.12171 27.6139 6.26299C27.5321 6.40056 27.4912 6.56229 27.4912 6.74819C27.4912 6.93781 27.534 7.1107 27.6195 7.26686C27.705 7.42301 27.8333 7.54757 28.0043 7.64052C28.1791 7.72975 28.3929 7.77437 28.6457 7.77437C28.9617 7.77437 29.2406 7.70744 29.4822 7.57359C29.7239 7.43974 29.9154 7.27615 30.0567 7.08282C30.2017 6.88948 30.2798 6.70172 30.2909 6.51954L30.7315 7.01589C30.7055 7.17205 30.6348 7.34493 30.5196 7.53455C30.4043 7.72417 30.25 7.90635 30.0567 8.0811C29.8671 8.25213 29.6403 8.39527 29.3763 8.51053C29.116 8.62207 28.8223 8.67784 28.4951 8.67784C28.0861 8.67784 27.7273 8.59791 27.4187 8.43803C27.1139 8.27816 26.8759 8.06437 26.7049 7.79667C26.5376 7.52526 26.4539 7.22224 26.4539 6.88762C26.4539 6.56415 26.5171 6.27972 26.6435 6.03434C26.7699 5.78523 26.9521 5.57888 27.1901 5.41529C27.428 5.24798 27.7143 5.12156 28.0489 5.03605C28.3836 4.95053 28.7572 4.90778 29.1699 4.90778H30.369Z" fill="#FBFF89"/>
<path d="M33.9662 0V8.5663H32.9288V0H33.9662Z" fill="#FBFF89"/>
<path d="M36.7435 2.53197V8.5663H35.7062V2.53197H36.7435ZM35.6281 0.931362C35.6281 0.764052 35.6783 0.622767 35.7787 0.507509C35.8828 0.39225 36.0352 0.334621 36.236 0.334621C36.4331 0.334621 36.5836 0.39225 36.6878 0.507509C36.7956 0.622767 36.8495 0.764052 36.8495 0.931362C36.8495 1.09124 36.7956 1.2288 36.6878 1.34406C36.5836 1.4556 36.4331 1.51137 36.236 1.51137C36.0352 1.51137 35.8828 1.4556 35.7787 1.34406C35.6783 1.2288 35.6281 1.09124 35.6281 0.931362Z" fill="#FBFF89"/>
<path d="M42.895 7.7186V8.5663H38.5059V7.7186H42.895ZM42.7332 3.26256L38.7401 8.5663H38.1099V7.80783L42.0751 2.53197H42.7332V3.26256ZM42.2759 2.53197V3.38525H38.1545V2.53197H42.2759Z" fill="#FBFF89"/>
<path d="M47.6243 7.53455V4.42815C47.6243 4.1902 47.576 3.98385 47.4793 3.8091C47.3863 3.63064 47.2451 3.49307 47.0554 3.3964C46.8658 3.29974 46.6316 3.2514 46.3527 3.2514C46.0925 3.2514 45.8638 3.29602 45.6668 3.38525C45.4734 3.47448 45.321 3.5916 45.2094 3.7366C45.1016 3.88161 45.0477 4.03776 45.0477 4.20507H44.016C44.016 3.98943 44.0717 3.77564 44.1833 3.56372C44.2948 3.35179 44.4547 3.16031 44.6629 2.98928C44.8748 2.81454 45.1276 2.67697 45.4214 2.57658C45.7188 2.47248 46.0497 2.42043 46.4141 2.42043C46.8528 2.42043 47.2395 2.49479 47.5741 2.64351C47.9124 2.79223 48.1764 3.01717 48.366 3.31833C48.5594 3.61577 48.656 3.98943 48.656 4.43931V7.25013C48.656 7.4509 48.6728 7.66468 48.7062 7.89148C48.7434 8.11828 48.7973 8.31348 48.868 8.47707V8.5663H47.7916C47.7395 8.44733 47.6986 8.28931 47.6689 8.09226C47.6392 7.89148 47.6243 7.70558 47.6243 7.53455ZM47.8027 4.90778L47.8139 5.63279H46.771C46.4773 5.63279 46.2152 5.65696 45.9846 5.70529C45.7541 5.74991 45.5608 5.81869 45.4046 5.91164C45.2485 6.00459 45.1295 6.12171 45.0477 6.26299C44.9659 6.40056 44.925 6.56229 44.925 6.74819C44.925 6.93781 44.9678 7.1107 45.0533 7.26686C45.1388 7.42301 45.2671 7.54757 45.4381 7.64052C45.6128 7.72975 45.8266 7.77437 46.0795 7.77437C46.3955 7.77437 46.6743 7.70744 46.916 7.57359C47.1577 7.43974 47.3492 7.27615 47.4904 7.08282C47.6354 6.88948 47.7135 6.70172 47.7247 6.51954L48.1653 7.01589C48.1392 7.17205 48.0686 7.34493 47.9533 7.53455C47.8381 7.72417 47.6838 7.90635 47.4904 8.0811C47.3008 8.25213 47.074 8.39527 46.81 8.51053C46.5498 8.62207 46.2561 8.67784 45.9289 8.67784C45.5199 8.67784 45.1611 8.59791 44.8525 8.43803C44.5476 8.27816 44.3097 8.06437 44.1386 7.79667C43.9713 7.52526 43.8877 7.22224 43.8877 6.88762C43.8877 6.56415 43.9509 6.27972 44.0773 6.03434C44.2037 5.78523 44.3859 5.57888 44.6238 5.41529C44.8618 5.24798 45.1481 5.12156 45.4827 5.03605C45.8173 4.95053 46.191 4.90778 46.6037 4.90778H47.8027Z" fill="#FBFF89"/>
<path d="M54.0825 7.39513V0H55.1198V8.5663H54.1717L54.0825 7.39513ZM50.0224 5.61606V5.49894C50.0224 5.03791 50.0782 4.61963 50.1897 4.24411C50.305 3.86487 50.4667 3.53955 50.6749 3.26813C50.8868 2.99672 51.1378 2.78851 51.4278 2.64351C51.7215 2.49479 52.0487 2.42043 52.4094 2.42043C52.7886 2.42043 53.1195 2.48735 53.4021 2.6212C53.6884 2.75133 53.93 2.94281 54.1271 3.19563C54.3279 3.44474 54.4859 3.7459 54.6011 4.09911C54.7164 4.45232 54.7963 4.85201 54.841 5.29817V5.81125C54.8001 6.2537 54.7201 6.65153 54.6011 7.00474C54.4859 7.35795 54.3279 7.65911 54.1271 7.90821C53.93 8.15732 53.6884 8.3488 53.4021 8.48265C53.1158 8.61278 52.7812 8.67784 52.3982 8.67784C52.045 8.67784 51.7215 8.60162 51.4278 8.44919C51.1378 8.29675 50.8868 8.08296 50.6749 7.80783C50.4667 7.53269 50.305 7.20923 50.1897 6.83743C50.0782 6.46191 50.0224 6.05478 50.0224 5.61606ZM51.0597 5.49894V5.61606C51.0597 5.91722 51.0895 6.19979 51.149 6.46377C51.2122 6.72775 51.3088 6.96012 51.439 7.16089C51.5691 7.36167 51.7345 7.51968 51.9353 7.63494C52.1361 7.74648 52.3759 7.80225 52.6548 7.80225C52.9968 7.80225 53.2775 7.72975 53.4969 7.58475C53.72 7.43974 53.8984 7.24827 54.0323 7.01031C54.1661 6.77236 54.2702 6.51396 54.3446 6.23511V4.89105C54.3 4.68656 54.2349 4.4895 54.1494 4.29988C54.0676 4.10655 53.9598 3.93552 53.8259 3.7868C53.6958 3.63436 53.5341 3.51352 53.3407 3.42429C53.1511 3.33506 52.9262 3.29044 52.6659 3.29044C52.3833 3.29044 52.1398 3.34993 51.9353 3.46891C51.7345 3.58416 51.5691 3.74404 51.439 3.94853C51.3088 4.1493 51.2122 4.38354 51.149 4.65123C51.0895 4.91521 51.0597 5.19778 51.0597 5.49894Z" fill="#FBFF89"/>
<path d="M56.4527 5.61606V5.48779C56.4527 5.05278 56.5159 4.64938 56.6423 4.27757C56.7687 3.90205 56.9509 3.57673 57.1889 3.3016C57.4268 3.02274 57.715 2.8071 58.0533 2.65466C58.3917 2.4985 58.7709 2.42043 59.191 2.42043C59.6149 2.42043 59.996 2.4985 60.3343 2.65466C60.6764 2.8071 60.9664 3.02274 61.2043 3.3016C61.446 3.57673 61.63 3.90205 61.7565 4.27757C61.8829 4.64938 61.9461 5.05278 61.9461 5.48779V5.61606C61.9461 6.05107 61.8829 6.45447 61.7565 6.82627C61.63 7.19807 61.446 7.5234 61.2043 7.80225C60.9664 8.07738 60.6782 8.29303 60.3399 8.44919C60.0053 8.60162 59.626 8.67784 59.2022 8.67784C58.7783 8.67784 58.3972 8.60162 58.0589 8.44919C57.7206 8.29303 57.4305 8.07738 57.1889 7.80225C56.9509 7.5234 56.7687 7.19807 56.6423 6.82627C56.5159 6.45447 56.4527 6.05107 56.4527 5.61606ZM57.4845 5.48779V5.61606C57.4845 5.91722 57.5198 6.20165 57.5904 6.46934C57.6611 6.73332 57.767 6.96756 57.9083 7.17205C58.0533 7.37654 58.2336 7.53827 58.4493 7.65725C58.6649 7.77251 58.9159 7.83014 59.2022 7.83014C59.4847 7.83014 59.732 7.77251 59.9439 7.65725C60.1596 7.53827 60.338 7.37654 60.4793 7.17205C60.6206 6.96756 60.7266 6.73332 60.7972 6.46934C60.8716 6.20165 60.9087 5.91722 60.9087 5.61606V5.48779C60.9087 5.19035 60.8716 4.90964 60.7972 4.64566C60.7266 4.37796 60.6187 4.14187 60.4737 3.93738C60.3325 3.72917 60.154 3.56557 59.9383 3.4466C59.7264 3.32762 59.4773 3.26813 59.191 3.26813C58.9085 3.26813 58.6593 3.32762 58.4437 3.4466C58.2318 3.56557 58.0533 3.72917 57.9083 3.93738C57.767 4.14187 57.6611 4.37796 57.5904 4.64566C57.5198 4.90964 57.4845 5.19035 57.4845 5.48779Z" fill="#FBFF89"/>
<path d="M64.2717 3.48006V8.5663H63.2399V2.53197H64.2438L64.2717 3.48006ZM66.1567 2.4985L66.1511 3.45775C66.0656 3.43916 65.9838 3.42801 65.9058 3.42429C65.8314 3.41685 65.7459 3.41314 65.6492 3.41314C65.4113 3.41314 65.2012 3.45032 65.019 3.52468C64.8368 3.59904 64.6825 3.70314 64.5561 3.83699C64.4297 3.97084 64.3293 4.13071 64.255 4.31661C64.1843 4.4988 64.1378 4.69957 64.1155 4.91893L63.8255 5.08624C63.8255 4.72188 63.8608 4.37982 63.9315 4.06007C64.0059 3.74032 64.1193 3.45775 64.2717 3.21236C64.4241 2.96326 64.6175 2.76992 64.8517 2.63235C65.0897 2.49107 65.3722 2.42043 65.6994 2.42043C65.7738 2.42043 65.8593 2.42972 65.9559 2.44831C66.0526 2.46318 66.1195 2.47991 66.1567 2.4985Z" fill="#FBFF89"/>
</svg>
