<svg width="74" height="151" viewBox="0 0 74 151" fill="none" xmlns="http://www.w3.org/2000/svg">
<path d="M2.60645 24.6377C2.60645 22.4286 4.39731 20.6377 6.60645 20.6377H67.7409C69.9501 20.6377 71.7409 22.4286 71.7409 24.6377V146.973C71.7409 149.182 69.9501 150.973 67.7409 150.973H6.60644C4.39731 150.973 2.60645 149.182 2.60645 146.973V24.6377Z" fill="#8D031F"/>
<path d="M32.4951 124.178C32.4951 121.337 34.7986 119.033 37.64 119.033H39.5694C42.4108 119.033 44.7143 121.337 44.7143 124.178C44.7143 127.02 42.4108 129.323 39.5694 129.323H37.64C34.7986 129.323 32.4951 127.02 32.4951 124.178Z" fill="#A3A3A3"/>
<path d="M53.0753 49.9007C53.0753 57.8923 46.5969 64.3707 38.6053 64.3707C30.6137 64.3707 24.1353 57.8923 24.1353 49.9007C24.1353 41.9091 30.6137 35.4307 38.6053 35.4307C46.5969 35.4307 53.0753 41.9091 53.0753 49.9007Z" fill="#5E5858"/>
<path d="M51.7885 50.2216C51.7885 57.3253 46.0298 63.0839 38.9262 63.0839C31.8226 63.0839 26.064 57.3253 26.064 50.2216C26.064 43.118 31.8226 37.3594 38.9262 37.3594C46.0298 37.3594 51.7885 43.118 51.7885 50.2216Z" fill="black"/>
<path d="M0.339844 62.5713H2.60655V79.5716H0.339844V62.5713Z" fill="#ABB4BB"/>
<path d="M71.7412 62.5713H74.0079V79.5716H71.7412V62.5713Z" fill="#ABB4BB"/>
<path d="M0.339844 84.1055H2.60655V101.106H0.339844V84.1055Z" fill="#ABB4BB"/>
<path d="M40.2126 108.742C40.2126 109.453 39.6367 110.029 38.9264 110.029C38.216 110.029 37.6401 109.453 37.6401 108.742C37.6401 108.032 38.216 107.456 38.9264 107.456C39.6367 107.456 40.2126 108.032 40.2126 108.742Z" fill="#F40E0E"/>
<path d="M9.69949 5.7981H10.7847C10.7282 6.31812 10.5794 6.7835 10.3382 7.19424C10.097 7.60497 9.75601 7.93093 9.31513 8.17209C8.87425 8.40949 8.32408 8.52819 7.66464 8.52819C7.18231 8.52819 6.74331 8.43775 6.34764 8.25688C5.95574 8.076 5.61849 7.81976 5.33587 7.48816C5.05325 7.15279 4.83469 6.75147 4.6802 6.28421C4.52947 5.81318 4.4541 5.28939 4.4541 4.71285V3.89326C4.4541 3.31672 4.52947 2.79482 4.6802 2.32756C4.83469 1.85653 5.05514 1.45332 5.34152 1.11795C5.63168 0.782579 5.98024 0.524454 6.38721 0.343579C6.79418 0.162703 7.25202 0.0722656 7.76073 0.0722656C8.38249 0.0722656 8.90816 0.189081 9.33774 0.422712C9.76732 0.656343 10.1008 0.980411 10.3382 1.39492C10.5794 1.80566 10.7282 2.28234 10.7847 2.82496H9.69949C9.64673 2.4406 9.54876 2.11088 9.40557 1.8358C9.26237 1.55695 9.05889 1.34216 8.79511 1.19143C8.53134 1.0407 8.18654 0.965338 7.76073 0.965338C7.39521 0.965338 7.07303 1.03505 6.79418 1.17448C6.5191 1.3139 6.28735 1.51173 6.09894 1.76797C5.91429 2.02421 5.77487 2.33132 5.68066 2.68931C5.58646 3.04729 5.53935 3.44484 5.53935 3.88195V4.71285C5.53935 5.11605 5.58081 5.49476 5.66371 5.84897C5.75038 6.20319 5.88038 6.51407 6.05372 6.78161C6.22706 7.04916 6.4475 7.26018 6.71504 7.41468C6.98259 7.56541 7.29912 7.64077 7.66464 7.64077C8.12813 7.64077 8.49742 7.56729 8.7725 7.42033C9.04758 7.27337 9.25484 7.06235 9.39426 6.78727C9.53746 6.51218 9.6392 6.18246 9.69949 5.7981Z" fill="#FBFF89"/>
<path d="M11.8361 5.42505V5.29504C11.8361 4.85416 11.9001 4.44531 12.0283 4.06848C12.1564 3.68789 12.341 3.35817 12.5822 3.07932C12.8234 2.7967 13.1154 2.57814 13.4583 2.42365C13.8012 2.26538 14.1856 2.18625 14.6114 2.18625C15.041 2.18625 15.4272 2.26538 15.7701 2.42365C16.1168 2.57814 16.4107 2.7967 16.6519 3.07932C16.8968 3.35817 17.0834 3.68789 17.2115 4.06848C17.3396 4.44531 17.4037 4.85416 17.4037 5.29504V5.42505C17.4037 5.86593 17.3396 6.27479 17.2115 6.65161C17.0834 7.02843 16.8968 7.35815 16.6519 7.64077C16.4107 7.91962 16.1187 8.13818 15.7758 8.29645C15.4366 8.45094 15.0523 8.52819 14.6227 8.52819C14.1931 8.52819 13.8069 8.45094 13.464 8.29645C13.121 8.13818 12.8271 7.91962 12.5822 7.64077C12.341 7.35815 12.1564 7.02843 12.0283 6.65161C11.9001 6.27479 11.8361 5.86593 11.8361 5.42505ZM12.8818 5.29504V5.42505C12.8818 5.73028 12.9176 6.01855 12.9892 6.28986C13.0608 6.5574 13.1682 6.7948 13.3113 7.00206C13.4583 7.20931 13.6411 7.37323 13.8596 7.49381C14.0782 7.61063 14.3325 7.66903 14.6227 7.66903C14.9091 7.66903 15.1597 7.61063 15.3745 7.49381C15.593 7.37323 15.7739 7.20931 15.9171 7.00206C16.0603 6.7948 16.1677 6.5574 16.2393 6.28986C16.3146 6.01855 16.3523 5.73028 16.3523 5.42505V5.29504C16.3523 4.99358 16.3146 4.70908 16.2393 4.44154C16.1677 4.17022 16.0584 3.93094 15.9114 3.72369C15.7682 3.51267 15.5874 3.34686 15.3688 3.22628C15.154 3.1057 14.9015 3.04541 14.6114 3.04541C14.325 3.04541 14.0725 3.1057 13.854 3.22628C13.6392 3.34686 13.4583 3.51267 13.3113 3.72369C13.1682 3.93094 13.0608 4.17022 12.9892 4.44154C12.9176 4.70908 12.8818 4.99358 12.8818 5.29504Z" fill="#FBFF89"/>
<path d="M19.755 3.51455V8.41514H18.7037V2.29929H19.6985L19.755 3.51455ZM19.5402 5.12547L19.0541 5.10852C19.0579 4.69024 19.1125 4.304 19.2181 3.94978C19.3236 3.5918 19.48 3.28092 19.6872 3.01714C19.8945 2.75337 20.1526 2.54988 20.4616 2.40669C20.7706 2.25973 21.1286 2.18625 21.5355 2.18625C21.8219 2.18625 22.0857 2.2277 22.3269 2.3106C22.568 2.38973 22.7772 2.51597 22.9543 2.68931C23.1314 2.86265 23.2689 3.08497 23.3669 3.35629C23.4649 3.6276 23.5139 3.95544 23.5139 4.3398V8.41514H22.4682V4.39067C22.4682 4.07037 22.4135 3.81413 22.3042 3.62195C22.1987 3.42977 22.048 3.29034 21.8521 3.20367C21.6561 3.11323 21.4262 3.06802 21.1625 3.06802C20.8535 3.06802 20.5954 3.12265 20.3881 3.23193C20.1808 3.34121 20.015 3.49194 19.8907 3.68412C19.7663 3.8763 19.6759 4.09674 19.6194 4.34545C19.5666 4.59038 19.5402 4.85039 19.5402 5.12547ZM23.5025 4.54893L22.8017 4.76372C22.8054 4.42835 22.8601 4.10616 22.9656 3.79717C23.0749 3.48817 23.2312 3.21309 23.4347 2.97193C23.642 2.73076 23.8963 2.54046 24.1978 2.40104C24.4992 2.25784 24.844 2.18625 25.2322 2.18625C25.56 2.18625 25.8502 2.22958 26.1026 2.31625C26.3589 2.40292 26.5737 2.53669 26.747 2.71757C26.9241 2.89468 27.0579 3.12265 27.1483 3.4015C27.2388 3.68035 27.284 4.01196 27.284 4.39632V8.41514H26.2326V4.38501C26.2326 4.0421 26.178 3.77644 26.0687 3.58803C25.9632 3.39585 25.8125 3.26208 25.6165 3.18671C25.4243 3.10758 25.1945 3.06802 24.9269 3.06802C24.6971 3.06802 24.4936 3.10758 24.3165 3.18671C24.1394 3.26585 23.9905 3.37513 23.87 3.51455C23.7494 3.65021 23.657 3.80659 23.593 3.9837C23.5327 4.1608 23.5025 4.34922 23.5025 4.54893Z" fill="#FBFF89"/>
<path d="M29.9123 3.47498V10.7665H28.861V2.29929H29.8219L29.9123 3.47498ZM34.0329 5.30635V5.42505C34.0329 5.8697 33.9801 6.28232 33.8746 6.66291C33.7691 7.03974 33.6146 7.36757 33.4111 7.64642C33.2114 7.92527 32.9646 8.14195 32.6707 8.29645C32.3767 8.45094 32.0395 8.52819 31.6589 8.52819C31.2708 8.52819 30.9279 8.46413 30.6302 8.33601C30.3325 8.20789 30.08 8.02136 29.8728 7.77643C29.6655 7.53149 29.4997 7.23757 29.3753 6.89466C29.2548 6.55175 29.1719 6.16551 29.1266 5.73593V5.10286C29.1719 4.65068 29.2566 4.24559 29.381 3.88761C29.5054 3.52962 29.6693 3.2244 29.8728 2.97193C30.08 2.71568 30.3306 2.52162 30.6245 2.38973C30.9184 2.25408 31.2576 2.18625 31.6419 2.18625C32.0263 2.18625 32.3673 2.26161 32.665 2.41234C32.9627 2.5593 33.2133 2.77032 33.4168 3.04541C33.6203 3.32049 33.7729 3.65021 33.8746 4.03457C33.9801 4.41516 34.0329 4.83909 34.0329 5.30635ZM32.9816 5.42505V5.30635C32.9816 5.00112 32.9495 4.71474 32.8855 4.44719C32.8214 4.17588 32.7215 3.93848 32.5859 3.73499C32.454 3.52774 32.2844 3.36571 32.0772 3.24889C31.8699 3.12831 31.6231 3.06802 31.3367 3.06802C31.0729 3.06802 30.8431 3.11323 30.6471 3.20367C30.4549 3.29411 30.291 3.41658 30.1554 3.57107C30.0197 3.7218 29.9086 3.89514 29.8219 4.09109C29.739 4.28327 29.6768 4.48299 29.6354 4.69024V6.1542C29.7107 6.41798 29.8162 6.66668 29.9519 6.90031C30.0875 7.13018 30.2684 7.3167 30.4945 7.4599C30.7206 7.59932 31.0051 7.66903 31.348 7.66903C31.6306 7.66903 31.8737 7.61063 32.0772 7.49381C32.2844 7.37323 32.454 7.20931 32.5859 7.00206C32.7215 6.7948 32.8214 6.5574 32.8855 6.28986C32.9495 6.01855 32.9816 5.73028 32.9816 5.42505Z" fill="#FBFF89"/>
<path d="M36.4125 3.2602V8.41514H35.3668V2.29929H36.3843L36.4125 3.2602ZM38.323 2.26538L38.3174 3.23759C38.2307 3.21874 38.1478 3.20744 38.0687 3.20367C37.9933 3.19614 37.9066 3.19237 37.8087 3.19237C37.5675 3.19237 37.3546 3.23005 37.1699 3.30541C36.9853 3.38078 36.8289 3.48629 36.7008 3.62195C36.5727 3.7576 36.4709 3.91964 36.3956 4.10805C36.324 4.29269 36.2769 4.49618 36.2543 4.7185L35.9603 4.88807C35.9603 4.51879 35.9961 4.17211 36.0677 3.84804C36.1431 3.52397 36.258 3.23759 36.4125 2.98888C36.567 2.73641 36.763 2.54046 37.0004 2.40104C37.2415 2.25784 37.5279 2.18625 37.8595 2.18625C37.9349 2.18625 38.0216 2.19567 38.1195 2.21451C38.2175 2.22958 38.2853 2.24654 38.323 2.26538Z" fill="#FBFF89"/>
<path d="M41.7144 8.52819C41.2886 8.52819 40.9024 8.4566 40.5557 8.3134C40.2128 8.16644 39.917 7.96107 39.6683 7.6973C39.4234 7.43352 39.2349 7.12076 39.1031 6.759C38.9712 6.39725 38.9052 6.00159 38.9052 5.57201V5.33461C38.9052 4.8372 38.9787 4.39443 39.1257 4.00631C39.2726 3.61441 39.4723 3.2828 39.7248 3.01149C39.9773 2.74018 40.2637 2.53481 40.584 2.39538C40.9043 2.25596 41.2359 2.18625 41.5788 2.18625C42.0159 2.18625 42.3927 2.26161 42.7093 2.41234C43.0296 2.56307 43.2915 2.77409 43.4949 3.04541C43.6984 3.31295 43.8492 3.62948 43.9471 3.995C44.0451 4.35675 44.0941 4.75242 44.0941 5.182V5.65114H39.527V4.79764H43.0484V4.7185C43.0333 4.44719 42.9768 4.18341 42.8788 3.92717C42.7846 3.67093 42.6339 3.45991 42.4266 3.29411C42.2194 3.12831 41.9368 3.04541 41.5788 3.04541C41.3414 3.04541 41.1228 3.09628 40.9231 3.19802C40.7234 3.29599 40.5519 3.44295 40.4087 3.6389C40.2656 3.83485 40.1544 4.07413 40.0753 4.35675C39.9961 4.63937 39.9566 4.96532 39.9566 5.33461V5.57201C39.9566 5.86216 39.9961 6.13536 40.0753 6.3916C40.1582 6.64407 40.2769 6.8664 40.4314 7.05858C40.5896 7.25076 40.7799 7.40149 41.0022 7.51077C41.2283 7.62005 41.4846 7.67469 41.771 7.67469C42.1403 7.67469 42.453 7.59932 42.7093 7.44859C42.9655 7.29786 43.1897 7.09626 43.3819 6.84379L44.015 7.34685C43.8831 7.54657 43.7154 7.73686 43.5119 7.91774C43.3084 8.09861 43.0578 8.24557 42.7601 8.35862C42.4662 8.47167 42.1176 8.52819 41.7144 8.52819Z" fill="#FBFF89"/>
<path d="M48.876 6.79292C48.876 6.64219 48.8421 6.50276 48.7742 6.37464C48.7102 6.24276 48.5764 6.12406 48.3729 6.01855C48.1732 5.90927 47.8717 5.81506 47.4685 5.73593C47.1294 5.66433 46.8223 5.57955 46.5472 5.48157C46.2759 5.3836 46.0442 5.2649 45.852 5.12547C45.6636 4.98605 45.5185 4.82213 45.4167 4.63372C45.315 4.44531 45.2641 4.22486 45.2641 3.97239C45.2641 3.73123 45.3169 3.50325 45.4224 3.28846C45.5317 3.07367 45.6843 2.88337 45.8802 2.71757C46.0799 2.55177 46.3192 2.42176 46.5981 2.32756C46.8769 2.23335 47.1878 2.18625 47.5307 2.18625C48.0206 2.18625 48.4389 2.27292 48.7855 2.44626C49.1322 2.61959 49.3979 2.85134 49.5825 3.1415C49.7672 3.42788 49.8595 3.7463 49.8595 4.09674H48.8138C48.8138 3.92717 48.7629 3.76325 48.6612 3.60499C48.5632 3.44295 48.4181 3.30918 48.226 3.20367C48.0375 3.09816 47.8058 3.04541 47.5307 3.04541C47.2406 3.04541 47.0051 3.09062 46.8242 3.18106C46.6471 3.26773 46.5171 3.37889 46.4342 3.51455C46.355 3.65021 46.3155 3.7934 46.3155 3.94413C46.3155 4.05718 46.3343 4.15892 46.372 4.24936C46.4134 4.33603 46.485 4.41704 46.5868 4.49241C46.6885 4.56401 46.8317 4.63183 47.0164 4.69589C47.201 4.75995 47.4365 4.82401 47.7229 4.88807C48.2241 5.00112 48.6367 5.13678 48.9608 5.29504C49.2848 5.45331 49.526 5.64737 49.6843 5.87724C49.8425 6.1071 49.9217 6.38595 49.9217 6.71379C49.9217 6.98133 49.8651 7.22627 49.7521 7.44859C49.6428 7.67092 49.4827 7.8631 49.2716 8.02513C49.0644 8.1834 48.8157 8.30775 48.5255 8.39819C48.2392 8.48486 47.917 8.52819 47.559 8.52819C47.0201 8.52819 46.5642 8.4321 46.1911 8.23992C45.8181 8.04774 45.5354 7.79904 45.3433 7.49381C45.1511 7.18858 45.055 6.8664 45.055 6.52726H46.1063C46.1214 6.81364 46.2043 7.04162 46.355 7.21119C46.5058 7.377 46.6904 7.4957 46.909 7.56729C47.1275 7.63512 47.3442 7.66903 47.559 7.66903C47.8454 7.66903 48.0847 7.63135 48.2768 7.55599C48.4728 7.48062 48.6216 7.377 48.7234 7.24511C48.8251 7.11322 48.876 6.96249 48.876 6.79292Z" fill="#FBFF89"/>
<path d="M54.8562 6.79292C54.8562 6.64219 54.8223 6.50276 54.7544 6.37464C54.6904 6.24276 54.5566 6.12406 54.3531 6.01855C54.1534 5.90927 53.8519 5.81506 53.4487 5.73593C53.1096 5.66433 52.8025 5.57955 52.5274 5.48157C52.2561 5.3836 52.0243 5.2649 51.8322 5.12547C51.6438 4.98605 51.4987 4.82213 51.3969 4.63372C51.2952 4.44531 51.2443 4.22486 51.2443 3.97239C51.2443 3.73123 51.2971 3.50325 51.4026 3.28846C51.5119 3.07367 51.6645 2.88337 51.8604 2.71757C52.0601 2.55177 52.2994 2.42176 52.5783 2.32756C52.8571 2.23335 53.168 2.18625 53.5109 2.18625C54.0008 2.18625 54.4191 2.27292 54.7657 2.44626C55.1124 2.61959 55.3781 2.85134 55.5627 3.1415C55.7474 3.42788 55.8397 3.7463 55.8397 4.09674H54.794C54.794 3.92717 54.7431 3.76325 54.6414 3.60499C54.5434 3.44295 54.3983 3.30918 54.2062 3.20367C54.0177 3.09816 53.786 3.04541 53.5109 3.04541C53.2208 3.04541 52.9852 3.09062 52.8044 3.18106C52.6273 3.26773 52.4973 3.37889 52.4144 3.51455C52.3352 3.65021 52.2957 3.7934 52.2957 3.94413C52.2957 4.05718 52.3145 4.15892 52.3522 4.24936C52.3936 4.33603 52.4652 4.41704 52.567 4.49241C52.6687 4.56401 52.8119 4.63183 52.9966 4.69589C53.1812 4.75995 53.4167 4.82401 53.7031 4.88807C54.2043 5.00112 54.6169 5.13678 54.941 5.29504C55.265 5.45331 55.5062 5.64737 55.6645 5.87724C55.8227 6.1071 55.9019 6.38595 55.9019 6.71379C55.9019 6.98133 55.8453 7.22627 55.7323 7.44859C55.623 7.67092 55.4629 7.8631 55.2518 8.02513C55.0446 8.1834 54.7959 8.30775 54.5057 8.39819C54.2193 8.48486 53.8972 8.52819 53.5392 8.52819C53.0003 8.52819 52.5444 8.4321 52.1713 8.23992C51.7983 8.04774 51.5156 7.79904 51.3235 7.49381C51.1313 7.18858 51.0352 6.8664 51.0352 6.52726H52.0865C52.1016 6.81364 52.1845 7.04162 52.3352 7.21119C52.486 7.377 52.6706 7.4957 52.8892 7.56729C53.1077 7.63512 53.3244 7.66903 53.5392 7.66903C53.8256 7.66903 54.0648 7.63135 54.257 7.55599C54.453 7.48062 54.6018 7.377 54.7036 7.24511C54.8053 7.11322 54.8562 6.96249 54.8562 6.79292Z" fill="#FBFF89"/>
<path d="M56.9984 5.42505V5.29504C56.9984 4.85416 57.0625 4.44531 57.1906 4.06848C57.3187 3.68789 57.5034 3.35817 57.7445 3.07932C57.9857 2.7967 58.2777 2.57814 58.6206 2.42365C58.9636 2.26538 59.3479 2.18625 59.7737 2.18625C60.2033 2.18625 60.5896 2.26538 60.9325 2.42365C61.2791 2.57814 61.5731 2.7967 61.8142 3.07932C62.0592 3.35817 62.2457 3.68789 62.3738 4.06848C62.5019 4.44531 62.566 4.85416 62.566 5.29504V5.42505C62.566 5.86593 62.5019 6.27479 62.3738 6.65161C62.2457 7.02843 62.0592 7.35815 61.8142 7.64077C61.5731 7.91962 61.281 8.13818 60.9381 8.29645C60.599 8.45094 60.2146 8.52819 59.785 8.52819C59.3555 8.52819 58.9692 8.45094 58.6263 8.29645C58.2834 8.13818 57.9895 7.91962 57.7445 7.64077C57.5034 7.35815 57.3187 7.02843 57.1906 6.65161C57.0625 6.27479 56.9984 5.86593 56.9984 5.42505ZM58.0441 5.29504V5.42505C58.0441 5.73028 58.0799 6.01855 58.1515 6.28986C58.2231 6.5574 58.3305 6.7948 58.4737 7.00206C58.6206 7.20931 58.8034 7.37323 59.022 7.49381C59.2405 7.61063 59.4949 7.66903 59.785 7.66903C60.0714 7.66903 60.322 7.61063 60.5368 7.49381C60.7554 7.37323 60.9362 7.20931 61.0794 7.00206C61.2226 6.7948 61.33 6.5574 61.4016 6.28986C61.477 6.01855 61.5147 5.73028 61.5147 5.42505V5.29504C61.5147 4.99358 61.477 4.70908 61.4016 4.44154C61.33 4.17022 61.2207 3.93094 61.0738 3.72369C60.9306 3.51267 60.7497 3.34686 60.5311 3.22628C60.3164 3.1057 60.0639 3.04541 59.7737 3.04541C59.4873 3.04541 59.2349 3.1057 59.0163 3.22628C58.8015 3.34686 58.6206 3.51267 58.4737 3.72369C58.3305 3.93094 58.2231 4.17022 58.1515 4.44154C58.0799 4.70908 58.0441 4.99358 58.0441 5.29504Z" fill="#FBFF89"/>
<path d="M64.923 3.2602V8.41514H63.8773V2.29929H64.8948L64.923 3.2602ZM66.8335 2.26538L66.8279 3.23759C66.7412 3.21874 66.6583 3.20744 66.5792 3.20367C66.5038 3.19614 66.4171 3.19237 66.3192 3.19237C66.078 3.19237 65.8651 3.23005 65.6804 3.30541C65.4958 3.38078 65.3394 3.48629 65.2113 3.62195C65.0832 3.7576 64.9814 3.91964 64.9061 4.10805C64.8345 4.29269 64.7874 4.49618 64.7648 4.7185L64.4708 4.88807C64.4708 4.51879 64.5066 4.17211 64.5782 3.84804C64.6536 3.52397 64.7685 3.23759 64.923 2.98888C65.0775 2.73641 65.2735 2.54046 65.5109 2.40104C65.752 2.25784 66.0384 2.18625 66.37 2.18625C66.4454 2.18625 66.5321 2.19567 66.63 2.21451C66.728 2.22958 66.7958 2.24654 66.8335 2.26538Z" fill="#FBFF89"/>
</svg>
