<svg width="74" height="152" viewBox="0 0 74 152" fill="none" xmlns="http://www.w3.org/2000/svg">
<path d="M2.26667 24.7871C2.26667 22.578 4.05753 20.7871 6.26667 20.7871H67.4012C69.6103 20.7871 71.4012 22.578 71.4012 24.7871V147.123C71.4012 149.332 69.6103 151.123 67.4012 151.123H6.26667C4.05753 151.123 2.26667 149.332 2.26667 147.123V24.7871Z" fill="#BA420D"/>
<path d="M2.26666 64.4543C2.26666 62.2452 4.05752 60.4543 6.26666 60.4543H67.4011C69.6103 60.4543 71.4011 62.2452 71.4011 64.4543L71.4012 147.123C71.4012 149.332 69.6103 151.123 67.4012 151.123H6.26667C4.05753 151.123 2.26667 149.332 2.26667 147.123L2.26666 64.4543Z" fill="#DE571A"/>
<path d="M5.66657 106.389C5.66657 104.18 7.45743 102.389 9.66657 102.389H64.0009C66.2101 102.389 68.0009 104.18 68.0009 106.389V140.323C68.0009 142.532 66.2101 144.323 64.0009 144.323H9.66657C7.45743 144.323 5.66657 142.532 5.66657 140.323V106.389Z" fill="#050505"/>
<path d="M18.7448 39.1634C18.7448 42.919 15.7003 45.9635 11.9447 45.9635C8.18911 45.9635 5.1446 42.919 5.1446 39.1634C5.1446 35.4078 8.18911 32.3633 11.9447 32.3633C15.7003 32.3633 18.7448 35.4078 18.7448 39.1634Z" fill="#D9D9D9"/>
<path d="M16.478 39.1642C16.478 41.6679 14.4483 43.6976 11.9446 43.6976C9.44085 43.6976 7.41117 41.6679 7.41117 39.1642C7.41117 36.6604 9.44085 34.6308 11.9446 34.6308C14.4483 34.6308 16.478 36.6604 16.478 39.1642Z" fill="white"/>
<path d="M35.466 39.1634C35.466 42.919 32.4215 45.9635 28.6659 45.9635C24.9103 45.9635 21.8658 42.919 21.8658 39.1634C21.8658 35.4078 24.9103 32.3633 28.6659 32.3633C32.4215 32.3633 35.466 35.4078 35.466 39.1634Z" fill="#D9D9D9"/>
<path d="M33.1992 39.1642C33.1992 41.6679 31.1695 43.6976 28.6658 43.6976C26.162 43.6976 24.1323 41.6679 24.1323 39.1642C24.1323 36.6604 26.162 34.6308 28.6658 34.6308C31.1695 34.6308 33.1992 36.6604 33.1992 39.1642Z" fill="white"/>
<path d="M52.1871 39.4427C52.1871 43.1983 49.1426 46.2428 45.387 46.2428C41.6314 46.2428 38.5869 43.1983 38.5869 39.4427C38.5869 35.6871 41.6314 32.6426 45.387 32.6426C49.1426 32.6426 52.1871 35.6871 52.1871 39.4427Z" fill="#D9D9D9"/>
<path d="M49.9199 39.4428C49.9199 41.9465 47.8902 43.9762 45.3865 43.9762C42.8828 43.9762 40.8531 41.9465 40.8531 39.4428C40.8531 36.939 42.8828 34.9094 45.3865 34.9094C47.8902 34.9094 49.9199 36.939 49.9199 39.4428Z" fill="white"/>
<path d="M68.9079 39.1634C68.9079 42.919 65.8634 45.9635 62.1078 45.9635C58.3522 45.9635 55.3077 42.919 55.3077 39.1634C55.3077 35.4078 58.3522 32.3633 62.1078 32.3633C65.8634 32.3633 68.9079 35.4078 68.9079 39.1634Z" fill="#D9D9D9"/>
<path d="M66.6415 39.1642C66.6415 41.6679 64.6118 43.6976 62.1081 43.6976C59.6044 43.6976 57.5747 41.6679 57.5747 39.1642C57.5747 36.6604 59.6044 34.6308 62.1081 34.6308C64.6118 34.6308 66.6415 36.6604 66.6415 39.1642Z" fill="white"/>
<path d="M0 62.7215H2.2667V79.7218H0V62.7215Z" fill="#ABB4BB"/>
<path d="M71.4013 62.7215H73.668V79.7218H71.4013V62.7215Z" fill="#ABB4BB"/>
<path d="M0 84.2551H2.2667V101.255H0V84.2551Z" fill="#ABB4BB"/>
<path d="M14.7999 8.56897H13.0815L13.0928 7.68155H14.7999C15.3877 7.68155 15.8776 7.55909 16.2695 7.31415C16.6614 7.06545 16.9553 6.71877 17.1512 6.27412C17.3509 5.8257 17.4508 5.30191 17.4508 4.70276V4.1997C17.4508 3.72867 17.3943 3.3104 17.2812 2.94488C17.1682 2.57559 17.0024 2.26471 16.7838 2.01224C16.5653 1.756 16.2977 1.56193 15.9812 1.43005C15.6684 1.29816 15.3086 1.23221 14.9016 1.23221H13.0476V0.339141H14.9016C15.4405 0.339141 15.9322 0.429579 16.3769 0.610455C16.8215 0.787562 17.204 1.04569 17.5243 1.38483C17.8484 1.7202 18.0971 2.12717 18.2704 2.60574C18.4437 3.08053 18.5304 3.61562 18.5304 4.21101V4.70276C18.5304 5.29814 18.4437 5.83512 18.2704 6.31368C18.0971 6.78848 17.8465 7.19357 17.5186 7.52894C17.1946 7.86431 16.8027 8.12244 16.3429 8.30331C15.887 8.48042 15.3726 8.56897 14.7999 8.56897ZM13.6637 0.339141V8.56897H12.5728V0.339141H13.6637Z" fill="#FBFF89"/>
<path d="M21.1474 2.45312V8.56897H20.0961V2.45312H21.1474ZM20.017 0.830897C20.017 0.661326 20.0678 0.518133 20.1696 0.401317C20.2751 0.284502 20.4296 0.226094 20.6331 0.226094C20.8328 0.226094 20.9854 0.284502 21.0909 0.401317C21.2002 0.518133 21.2548 0.661326 21.2548 0.830897C21.2548 0.992931 21.2002 1.13236 21.0909 1.24917C20.9854 1.36222 20.8328 1.41874 20.6331 1.41874C20.4296 1.41874 20.2751 1.36222 20.1696 1.24917C20.0678 1.13236 20.017 0.992931 20.017 0.830897Z" fill="#FBFF89"/>
<path d="M26.3872 6.94675C26.3872 6.79602 26.3533 6.65659 26.2854 6.52847C26.2214 6.39658 26.0876 6.27789 25.8841 6.17237C25.6844 6.0631 25.3829 5.96889 24.9797 5.88976C24.6406 5.81816 24.3335 5.73338 24.0584 5.6354C23.7871 5.53743 23.5554 5.41873 23.3632 5.2793C23.1748 5.13988 23.0297 4.97596 22.9279 4.78755C22.8262 4.59914 22.7753 4.37869 22.7753 4.12622C22.7753 3.88505 22.8281 3.65708 22.9336 3.44229C23.0429 3.2275 23.1955 3.0372 23.3914 2.8714C23.5912 2.7056 23.8304 2.57559 24.1093 2.48138C24.3881 2.38718 24.699 2.34008 25.0419 2.34008C25.5318 2.34008 25.9501 2.42675 26.2967 2.60008C26.6434 2.77342 26.9091 3.00517 27.0937 3.29532C27.2784 3.58171 27.3707 3.90013 27.3707 4.25057H26.325C26.325 4.081 26.2741 3.91708 26.1724 3.75882C26.0744 3.59678 25.9293 3.46301 25.7372 3.3575C25.5488 3.25199 25.317 3.19923 25.0419 3.19923C24.7518 3.19923 24.5163 3.24445 24.3354 3.33489C24.1583 3.42156 24.0283 3.53272 23.9454 3.66838C23.8662 3.80404 23.8267 3.94723 23.8267 4.09796C23.8267 4.21101 23.8455 4.31275 23.8832 4.40319C23.9246 4.48986 23.9962 4.57087 24.098 4.64624C24.1997 4.71783 24.3429 4.78566 24.5276 4.84972C24.7122 4.91378 24.9477 4.97784 25.2341 5.0419C25.7353 5.15495 26.1479 5.29061 26.472 5.44887C26.796 5.60714 27.0372 5.8012 27.1955 6.03107C27.3537 6.26093 27.4329 6.53978 27.4329 6.86761C27.4329 7.13516 27.3763 7.3801 27.2633 7.60242C27.154 7.82475 26.9939 8.01693 26.7828 8.17896C26.5756 8.33723 26.3269 8.46158 26.0367 8.55202C25.7504 8.63869 25.4282 8.68202 25.0702 8.68202C24.5313 8.68202 24.0754 8.58593 23.7023 8.39375C23.3293 8.20157 23.0466 7.95287 22.8545 7.64764C22.6623 7.34241 22.5662 7.02023 22.5662 6.68109H23.6175C23.6326 6.96747 23.7155 7.19545 23.8662 7.36502C24.017 7.53082 24.2016 7.64952 24.4202 7.72112C24.6387 7.78895 24.8554 7.82286 25.0702 7.82286C25.3566 7.82286 25.5959 7.78518 25.788 7.70982C25.984 7.63445 26.1328 7.53082 26.2346 7.39894C26.3363 7.26705 26.3872 7.11632 26.3872 6.94675Z" fill="#FBFF89"/>
<path d="M31.3669 2.45312V3.25576H28.0603V2.45312H31.3669ZM29.1794 0.966553H30.2251V7.05414C30.2251 7.2614 30.2572 7.41778 30.3212 7.52329C30.3853 7.6288 30.4682 7.69851 30.5699 7.73243C30.6717 7.76634 30.7809 7.7833 30.8978 7.7833C30.9844 7.7833 31.0749 7.77576 31.1691 7.76069C31.2671 7.74185 31.3405 7.72677 31.3895 7.71547L31.3952 8.56897C31.3123 8.59535 31.203 8.61985 31.0673 8.64246C30.9354 8.66883 30.7753 8.68202 30.5869 8.68202C30.3306 8.68202 30.0951 8.63115 29.8803 8.52941C29.6656 8.42767 29.4941 8.25809 29.366 8.0207C29.2416 7.77953 29.1794 7.45546 29.1794 7.04849V0.966553Z" fill="#FBFF89"/>
<path d="M32.2035 5.57888V5.44887C32.2035 5.00799 32.2675 4.59914 32.3956 4.22231C32.5238 3.84172 32.7084 3.512 32.9496 3.23315C33.1907 2.95053 33.4828 2.73197 33.8257 2.57748C34.1686 2.41921 34.553 2.34008 34.9788 2.34008C35.4083 2.34008 35.7946 2.41921 36.1375 2.57748C36.4842 2.73197 36.7781 2.95053 37.0193 3.23315C37.2642 3.512 37.4507 3.84172 37.5789 4.22231C37.707 4.59914 37.771 5.00799 37.771 5.44887V5.57888C37.771 6.01976 37.707 6.42862 37.5789 6.80544C37.4507 7.18226 37.2642 7.51198 37.0193 7.7946C36.7781 8.07345 36.4861 8.29201 36.1432 8.45028C35.804 8.60477 35.4197 8.68202 34.9901 8.68202C34.5605 8.68202 34.1742 8.60477 33.8313 8.45028C33.4884 8.29201 33.1945 8.07345 32.9496 7.7946C32.7084 7.51198 32.5238 7.18226 32.3956 6.80544C32.2675 6.42862 32.2035 6.01976 32.2035 5.57888ZM33.2491 5.44887V5.57888C33.2491 5.8841 33.2849 6.17237 33.3565 6.44369C33.4281 6.71123 33.5355 6.94863 33.6787 7.15589C33.8257 7.36314 34.0084 7.52706 34.227 7.64764C34.4456 7.76446 34.6999 7.82286 34.9901 7.82286C35.2765 7.82286 35.527 7.76446 35.7418 7.64764C35.9604 7.52706 36.1413 7.36314 36.2845 7.15589C36.4277 6.94863 36.5351 6.71123 36.6066 6.44369C36.682 6.17237 36.7197 5.8841 36.7197 5.57888V5.44887C36.7197 5.14741 36.682 4.86291 36.6066 4.59537C36.5351 4.32405 36.4258 4.08477 36.2788 3.87752C36.1356 3.6665 35.9547 3.50069 35.7362 3.38011C35.5214 3.25953 35.2689 3.19923 34.9788 3.19923C34.6924 3.19923 34.4399 3.25953 34.2214 3.38011C34.0066 3.50069 33.8257 3.6665 33.6787 3.87752C33.5355 4.08477 33.4281 4.32405 33.3565 4.59537C33.2849 4.86291 33.2491 5.14741 33.2491 5.44887Z" fill="#FBFF89"/>
<path d="M40.1281 3.41402V8.56897H39.0824V2.45312H40.0998L40.1281 3.41402ZM42.0386 2.41921L42.0329 3.39141C41.9462 3.37257 41.8633 3.36127 41.7842 3.3575C41.7088 3.34996 41.6222 3.3462 41.5242 3.3462C41.283 3.3462 41.0701 3.38388 40.8855 3.45924C40.7008 3.53461 40.5445 3.64012 40.4163 3.77577C40.2882 3.91143 40.1865 4.07347 40.1111 4.26188C40.0395 4.44652 39.9924 4.65001 39.9698 4.87233L39.6759 5.0419C39.6759 4.67262 39.7117 4.32594 39.7833 4.00187C39.8586 3.6778 39.9736 3.39141 40.1281 3.14271C40.2826 2.89024 40.4785 2.69429 40.7159 2.55487C40.9571 2.41167 41.2435 2.34008 41.5751 2.34008C41.6504 2.34008 41.7371 2.3495 41.8351 2.36834C41.9331 2.38341 42.0009 2.40037 42.0386 2.41921Z" fill="#FBFF89"/>
<path d="M45.3395 7.82286C45.5882 7.82286 45.8181 7.77199 46.0291 7.67025C46.2402 7.56851 46.4135 7.42908 46.5491 7.25198C46.6848 7.0711 46.7621 6.86573 46.7809 6.63587H47.7757C47.7569 6.99762 47.6344 7.33488 47.4083 7.64764C47.186 7.95664 46.8939 8.20722 46.5322 8.3994C46.1704 8.58782 45.7729 8.68202 45.3395 8.68202C44.8798 8.68202 44.4785 8.601 44.1356 8.43897C43.7964 8.27694 43.5138 8.05461 43.2877 7.77199C43.0654 7.48937 42.8977 7.16531 42.7847 6.79979C42.6754 6.4305 42.6208 6.04049 42.6208 5.62975V5.39235C42.6208 4.98161 42.6754 4.59348 42.7847 4.22796C42.8977 3.85868 43.0654 3.53272 43.2877 3.25011C43.5138 2.96749 43.7964 2.74516 44.1356 2.58313C44.4785 2.42109 44.8798 2.34008 45.3395 2.34008C45.8181 2.34008 46.2364 2.43805 46.5944 2.634C46.9523 2.82618 47.2331 3.08996 47.4366 3.42533C47.6438 3.75693 47.7569 4.13376 47.7757 4.5558H46.7809C46.7621 4.30333 46.6905 4.07535 46.5661 3.87187C46.4455 3.66838 46.2797 3.50635 46.0687 3.38576C45.8614 3.26141 45.6184 3.19923 45.3395 3.19923C45.0192 3.19923 44.7498 3.26329 44.5313 3.39141C44.3165 3.51577 44.145 3.68534 44.0169 3.90013C43.8925 4.11115 43.8021 4.34666 43.7456 4.60667C43.6928 4.86291 43.6664 5.1248 43.6664 5.39235V5.62975C43.6664 5.89729 43.6928 6.16107 43.7456 6.42108C43.7983 6.68109 43.8869 6.9166 44.0112 7.12762C44.1394 7.33864 44.3108 7.50822 44.5256 7.63634C44.7442 7.76069 45.0155 7.82286 45.3395 7.82286ZM44.763 8.6255H45.5148L45.4469 8.92507C45.6655 8.96276 45.8633 9.05319 46.0404 9.19639C46.2213 9.33958 46.3117 9.57509 46.3117 9.90293C46.3117 10.08 46.2741 10.2402 46.1987 10.3834C46.1271 10.5303 46.0197 10.6547 45.8765 10.7564C45.7333 10.8619 45.5543 10.943 45.3395 10.9995C45.1285 11.056 44.8817 11.0843 44.5991 11.0843L44.5595 10.4795C44.7329 10.4795 44.8892 10.4606 45.0287 10.4229C45.1719 10.3853 45.2849 10.325 45.3678 10.2421C45.4545 10.1592 45.4978 10.0518 45.4978 9.91989C45.4978 9.79554 45.4658 9.69756 45.4017 9.62597C45.3377 9.55437 45.2378 9.49973 45.1021 9.46205C44.9703 9.42813 44.7988 9.40364 44.5878 9.38857L44.763 8.6255Z" fill="#FBFF89"/>
<path d="M52.5576 7.52329V4.37493C52.5576 4.13376 52.5086 3.92462 52.4106 3.74751C52.3164 3.56664 52.1732 3.42721 51.9811 3.32924C51.7889 3.23126 51.5515 3.18228 51.2689 3.18228C51.0051 3.18228 50.7733 3.2275 50.5736 3.31793C50.3777 3.40837 50.2232 3.52707 50.1101 3.67403C50.0009 3.82099 49.9462 3.97926 49.9462 4.14883H48.9005C48.9005 3.93027 48.9571 3.7136 49.0701 3.49881C49.1831 3.28402 49.3452 3.08996 49.5562 2.91662C49.771 2.73951 50.0272 2.60008 50.3249 2.49834C50.6264 2.39283 50.9618 2.34008 51.331 2.34008C51.7757 2.34008 52.1676 2.41544 52.5067 2.56617C52.8496 2.7169 53.1172 2.94488 53.3094 3.25011C53.5053 3.55156 53.6033 3.93027 53.6033 4.38623V7.23502C53.6033 7.4385 53.6202 7.65518 53.6542 7.88504C53.6918 8.1149 53.7465 8.31273 53.8181 8.47854V8.56897H52.7272C52.6744 8.44839 52.633 8.28824 52.6028 8.08852C52.5727 7.88504 52.5576 7.69663 52.5576 7.52329ZM52.7385 4.86103L52.7498 5.59583H51.6928C51.3951 5.59583 51.1294 5.62033 50.8958 5.66931C50.6622 5.71453 50.4662 5.78425 50.308 5.87845C50.1497 5.97266 50.0291 6.09136 49.9462 6.23455C49.8633 6.37398 49.8219 6.53789 49.8219 6.72631C49.8219 6.91849 49.8652 7.09371 49.9519 7.25198C50.0385 7.41024 50.1685 7.53648 50.3419 7.63068C50.519 7.72112 50.7357 7.76634 50.9919 7.76634C51.3122 7.76634 51.5948 7.69851 51.8398 7.56285C52.0847 7.4272 52.2788 7.2614 52.4219 7.06545C52.5689 6.8695 52.648 6.6792 52.6593 6.49456L53.1059 6.99762C53.0795 7.15589 53.0079 7.33111 52.8911 7.52329C52.7743 7.71547 52.6179 7.90011 52.4219 8.07722C52.2298 8.25056 51.9999 8.39564 51.7324 8.51245C51.4686 8.6255 51.1709 8.68202 50.8393 8.68202C50.4248 8.68202 50.0611 8.601 49.7484 8.43897C49.4394 8.27694 49.1982 8.06026 49.0249 7.78895C48.8553 7.51387 48.7705 7.20676 48.7705 6.86761C48.7705 6.53978 48.8346 6.25151 48.9627 6.0028C49.0908 5.75033 49.2755 5.54119 49.5166 5.37539C49.7578 5.20582 50.048 5.0777 50.3871 4.99103C50.7262 4.90436 51.1049 4.86103 51.5232 4.86103H52.7385ZM52.7441 0L53.4507 0.0621759C53.4507 0.337257 53.396 0.578425 53.2868 0.785678C53.1775 0.992931 53.0305 1.15308 52.8459 1.26613C52.665 1.37918 52.4596 1.4357 52.2298 1.4357C52.0376 1.4357 51.8793 1.40932 51.755 1.35657C51.6306 1.30004 51.5195 1.23787 51.4215 1.17004C51.3235 1.09844 51.2199 1.03627 51.1106 0.98351C51.0051 0.926987 50.8732 0.898725 50.7149 0.898725C50.5567 0.898725 50.4229 0.959017 50.3136 1.0796C50.2081 1.20018 50.1553 1.34903 50.1553 1.52614L49.4488 1.49222C49.4488 1.21714 49.5016 0.975974 49.6071 0.768721C49.7164 0.557699 49.8633 0.393781 50.048 0.276966C50.2326 0.156382 50.438 0.0960901 50.6641 0.0960901C50.8261 0.0960901 50.9674 0.124352 51.088 0.180875C51.2123 0.233631 51.3292 0.295807 51.4384 0.367403C51.5477 0.435232 51.6608 0.497407 51.7776 0.553931C51.8944 0.606686 52.0282 0.633064 52.1789 0.633064C52.3372 0.633064 52.4709 0.572772 52.5802 0.452189C52.6895 0.327837 52.7441 0.177107 52.7441 0Z" fill="#FBFF89"/>
<path d="M54.9712 5.57888V5.44887C54.9712 5.00799 55.0352 4.59914 55.1633 4.22231C55.2915 3.84172 55.4761 3.512 55.7173 3.23315C55.9584 2.95053 56.2505 2.73197 56.5934 2.57748C56.9363 2.41921 57.3207 2.34008 57.7465 2.34008C58.176 2.34008 58.5623 2.41921 58.9052 2.57748C59.2519 2.73197 59.5458 2.95053 59.787 3.23315C60.0319 3.512 60.2184 3.84172 60.3465 4.22231C60.4747 4.59914 60.5387 5.00799 60.5387 5.44887V5.57888C60.5387 6.01976 60.4747 6.42862 60.3465 6.80544C60.2184 7.18226 60.0319 7.51198 59.787 7.7946C59.5458 8.07345 59.2538 8.29201 58.9109 8.45028C58.5717 8.60477 58.1874 8.68202 57.7578 8.68202C57.3282 8.68202 56.9419 8.60477 56.599 8.45028C56.2561 8.29201 55.9622 8.07345 55.7173 7.7946C55.4761 7.51198 55.2915 7.18226 55.1633 6.80544C55.0352 6.42862 54.9712 6.01976 54.9712 5.57888ZM56.0168 5.44887V5.57888C56.0168 5.8841 56.0526 6.17237 56.1242 6.44369C56.1958 6.71123 56.3032 6.94863 56.4464 7.15589C56.5934 7.36314 56.7761 7.52706 56.9947 7.64764C57.2133 7.76446 57.4676 7.82286 57.7578 7.82286C58.0442 7.82286 58.2947 7.76446 58.5095 7.64764C58.7281 7.52706 58.909 7.36314 59.0522 7.15589C59.1954 6.94863 59.3027 6.71123 59.3743 6.44369C59.4497 6.17237 59.4874 5.8841 59.4874 5.57888V5.44887C59.4874 5.14741 59.4497 4.86291 59.3743 4.59537C59.3027 4.32405 59.1935 4.08477 59.0465 3.87752C58.9033 3.6665 58.7224 3.50069 58.5039 3.38011C58.2891 3.25953 58.0366 3.19923 57.7465 3.19923C57.4601 3.19923 57.2076 3.25953 56.9891 3.38011C56.7743 3.50069 56.5934 3.6665 56.4464 3.87752C56.3032 4.08477 56.1958 4.32405 56.1242 4.59537C56.0526 4.86291 56.0168 5.14741 56.0168 5.44887Z" fill="#FBFF89"/>
</svg>
